<svg width="28" height="28" viewBox="0 0 28 28" fill="none" xmlns="http://www.w3.org/2000/svg">
<path d="M11.0901 15.52L13.2751 17.58L11.6901 19.07L9.63509 16.89L11.0901 15.52ZM8.91009 17.575L7.88009 16.485C7.55604 16.7872 7.34254 17.1893 7.27366 17.627C7.20479 18.0647 7.2845 18.5129 7.50009 18.9C7.5771 19.0508 7.67657 19.1891 7.79509 19.31L9.17009 20.765C9.28462 20.8892 9.41588 20.9969 9.56009 21.085C9.86294 21.2729 10.209 21.3796 10.5651 21.395C11.0956 21.4072 11.6095 21.2095 11.9951 20.845L10.9651 19.755L8.91009 17.575ZM7.07009 19.995C6.95486 19.8718 6.84953 19.7397 6.75509 19.6L4.97509 21.28L6.97009 23.525L8.81509 21.79C8.68275 21.685 8.55748 21.5715 8.44009 21.45L7.07009 19.995ZM0.905088 25.12C0.712514 25.3025 0.600167 25.554 0.592669 25.8192C0.585171 26.0845 0.683134 26.3419 0.865088 26.535L1.55009 27.265C1.73263 27.4576 1.98408 27.5699 2.24932 27.5774C2.51456 27.5849 2.77195 27.487 2.96509 27.305L4.19009 26.15L2.19509 23.905L0.905088 25.12ZM27.1301 4.51C27.2318 4.41446 27.3097 4.29637 27.3575 4.16524C27.4052 4.03411 27.4215 3.89359 27.4051 3.755L27.0951 0.42L14.7301 12.085L16.9151 14.145L27.1301 4.51ZM2.92009 23.22L4.91509 25.465L6.24509 24.215L4.25009 21.965L2.92009 23.22ZM18.3651 16.89L16.1851 14.83L14.0001 12.775L0.905088 0.42L0.595088 3.755C0.57863 3.89359 0.594939 4.03411 0.642704 4.16524C0.690468 4.29637 0.768352 4.41446 0.870088 4.51L11.8151 14.83L14.0001 16.89L16.3101 19.07L18.3651 16.89ZM20.5001 18.9C20.7157 18.5129 20.7954 18.0647 20.7265 17.627C20.6576 17.1893 20.4441 16.7872 20.1201 16.485L19.0901 17.575L17.0351 19.755L16.0051 20.845C16.3907 21.2095 16.9046 21.4072 17.4351 21.395C17.7911 21.3796 18.1372 21.2729 18.4401 21.085C18.5843 20.9969 18.7156 20.8892 18.8301 20.765L20.2051 19.31C20.3236 19.1891 20.4231 19.0508 20.5001 18.9ZM21.2451 19.6C21.1506 19.7397 21.0453 19.8718 20.9301 19.995L19.5601 21.45C19.4427 21.5715 19.3174 21.685 19.1851 21.79L21.0301 23.525L23.0251 21.28L21.2451 19.6ZM23.7501 21.965L21.7551 24.215L23.0851 25.465L25.0801 23.22L23.7501 21.965ZM27.0951 25.12L25.8051 23.905L23.8101 26.15L25.0351 27.305C25.2282 27.487 25.4856 27.5849 25.7509 27.5774C26.0161 27.5699 26.2675 27.4576 26.4501 27.265L27.1351 26.535C27.317 26.3419 27.415 26.0845 27.4075 25.8192C27.4 25.554 27.2877 25.3025 27.0951 25.12Z" fill="white"/>
</svg>
