<svg width="12" height="12" viewBox="0 0 12 12" fill="none" xmlns="http://www.w3.org/2000/svg">
<path d="M1.8435 5.63657C1.79577 5.59146 1.73961 5.5562 1.67825 5.53279C1.61689 5.50938 1.55151 5.49829 1.48586 5.50015C1.42021 5.50201 1.35557 5.51678 1.29562 5.54361C1.23568 5.57045 1.18161 5.60884 1.1365 5.65657C1.09139 5.70431 1.05613 5.76046 1.03272 5.82183C1.00931 5.88319 0.998221 5.94856 1.00008 6.01421C1.00193 6.07987 1.0167 6.14451 1.04354 6.20445C1.07038 6.26439 1.10877 6.31846 1.1565 6.36357L5.6565 10.6136C5.74934 10.7013 5.87225 10.7502 6 10.7502C6.12776 10.7502 6.25067 10.7013 6.3435 10.6136L10.844 6.36357C10.8928 6.31876 10.9322 6.2647 10.9599 6.20454C10.9876 6.14438 11.0031 6.07931 11.0054 6.01311C11.0078 5.94691 10.997 5.88091 10.9736 5.81893C10.9502 5.75695 10.9148 5.70023 10.8693 5.65207C10.8238 5.60391 10.7692 5.56527 10.7087 5.53839C10.6481 5.5115 10.5829 5.49692 10.5166 5.49547C10.4504 5.49403 10.3846 5.50576 10.3229 5.52999C10.2613 5.55421 10.205 5.59044 10.1575 5.63657L6 9.56257L1.8435 5.63657Z" fill="#ED1C24"/>
</svg>
