<svg width="32" height="32" viewBox="0 0 32 32" fill="none" xmlns="http://www.w3.org/2000/svg">
<circle cx="16" cy="16" r="16" fill="#02BD58"/>
<path d="M21.6283 14.7649C21.6283 15.2858 19.7633 15.7216 17.2633 15.8316L17.265 15.8324C16.8487 15.8552 16.4318 15.8644 16.015 15.8599C15.3658 15.8599 14.9067 15.8408 14.745 15.8333C12.24 15.7224 10.37 15.2866 10.37 14.7649C10.37 14.2433 12.24 13.8066 14.745 13.6949V15.3983C14.9083 15.4108 15.3775 15.4383 16.0258 15.4383C16.8033 15.4383 17.1925 15.4049 17.2633 15.3991V13.6966C19.7633 13.8074 21.6283 14.2441 21.6283 14.7649ZM25.9533 15.2199L16.1033 24.6583C16.0754 24.685 16.0382 24.6999 15.9996 24.6999C15.9609 24.6999 15.9237 24.685 15.8958 24.6583L6.04665 15.2199C6.02376 15.1981 6.00837 15.1696 6.00269 15.1384C5.997 15.1073 6.0013 15.0752 6.01499 15.0466L9.66165 7.38661C9.67382 7.3609 9.69306 7.33917 9.71711 7.32398C9.74116 7.30878 9.76904 7.30073 9.79749 7.30078H22.2042C22.2322 7.3012 22.2595 7.30947 22.2831 7.32464C22.3067 7.33981 22.3255 7.36128 22.3375 7.38661L25.985 15.0466C25.9987 15.0752 26.003 15.1073 25.9973 15.1384C25.9916 15.1696 25.9762 15.1981 25.9533 15.2199ZM22.2217 14.8833C22.2217 14.2116 20.095 13.6499 17.2658 13.5191V11.9958H20.7542V9.67078H11.2567V11.9958H14.7442V13.5199C11.9092 13.6499 9.77749 14.2116 9.77749 14.8841C9.77749 15.5574 11.9092 16.1174 14.7442 16.2491V21.1341H17.265V16.2474C20.0933 16.1166 22.2217 15.5558 22.2217 14.8833Z" fill="white"/>
</svg>
