<svg width="32" height="32" viewBox="0 0 32 32" fill="none" xmlns="http://www.w3.org/2000/svg">
<path d="M27.142 8.01C23.277 7.49281 19.6487 5.8527 16.707 3.293C16.5195 3.10553 16.2652 3.00021 16 3.00021C15.7348 3.00021 15.4805 3.10553 15.293 3.293C12.3564 5.86066 8.72561 7.50191 4.858 8.01C4.6198 8.04417 4.40191 8.16309 4.24431 8.34494C4.08671 8.52678 3.99997 8.75936 4 9V9.832C4.01306 13.4137 4.93601 16.9333 6.68222 20.0605C8.42843 23.1877 10.9406 25.8199 13.983 27.71L15.476 28.63C15.6336 28.7269 15.815 28.7783 16 28.7783C16.185 28.7783 16.3664 28.7269 16.524 28.63L18.017 27.71C21.0594 25.8199 23.5716 23.1877 25.3178 20.0605C27.064 16.9333 27.9869 13.4137 28 9.832V9C28 8.75936 27.9133 8.52678 27.7557 8.34494C27.5981 8.16309 27.3802 8.04417 27.142 8.01Z" fill="white"/>
</svg>
