<svg width="21" height="21" viewBox="0 0 21 21" fill="none" xmlns="http://www.w3.org/2000/svg">
<g clip-path="url(#clip0_2081_840)">
<path fill-rule="evenodd" clip-rule="evenodd" d="M11.8152 7.38788L9.78058 9.38558L8.82556 10.3221L7.76904 11.3556L5.03317 14.0407C3.99511 13.0857 2.38958 12.0799 2.38958 12.0799L1.82672 12.6336L4.15659 15.0096L1.73444 17.9669C1.36997 17.8377 0.945516 17.9161 0.650245 18.2068C0.23502 18.6128 0.230406 19.2772 0.636404 19.6878C1.0424 20.103 1.70676 20.1076 2.11737 19.7016C2.41264 19.411 2.5003 18.9911 2.37574 18.622L5.3792 16.2552L7.70907 18.6313L8.27193 18.0776C8.27193 18.0776 7.29384 16.4536 6.35728 15.3971L9.09315 12.712L10.1497 11.6785L11.1047 10.742L13.1393 8.74428L14.0943 7.80772L15.1508 6.77427L18.1404 3.84002V3.8354L18.1451 3.83079L18.1497 3.82618L18.1543 3.81695L18.1589 3.80772L18.1681 3.79849L18.1773 3.78927L18.1866 3.77543L18.1958 3.76159L18.2096 3.74775L18.2235 3.72929L18.2373 3.71084L18.2512 3.69238L18.2696 3.66931L18.2881 3.64625L18.3065 3.62318L18.325 3.5955L18.3434 3.56781L18.3619 3.54013L18.385 3.51245L18.408 3.48016L18.4311 3.44786L18.4542 3.41557L18.4772 3.37866L18.5003 3.34175L18.5234 3.30484L18.5511 3.26793L18.5787 3.22641L18.6064 3.18489L18.6341 3.14336L18.6618 3.10184L18.6895 3.0557L18.7171 3.00957L18.7448 2.96343L18.7725 2.9173L18.8002 2.86654L18.8325 2.8158L18.8648 2.76505L18.8971 2.7143C18.9063 2.69584 18.9155 2.67739 18.9294 2.65893L18.9617 2.60357C18.9709 2.58512 18.9847 2.56666 18.994 2.54821C19.0032 2.52975 19.017 2.5113 19.0263 2.49284C19.0355 2.47439 19.0493 2.45593 19.0585 2.43287C19.0678 2.41441 19.0816 2.39134 19.0908 2.37289C19.1001 2.35443 19.1139 2.33137 19.1231 2.31291C19.1324 2.29446 19.1462 2.27139 19.1554 2.25294C19.1647 2.23448 19.1785 2.21141 19.1877 2.18834C19.197 2.16528 19.2108 2.14682 19.22 2.12375C19.2293 2.10069 19.2431 2.08223 19.2523 2.05916C19.2615 2.03609 19.2754 2.01764 19.2846 1.99457C19.2938 1.9715 19.3077 1.94844 19.3169 1.92998C19.3261 1.90691 19.34 1.88385 19.3492 1.86078C19.3584 1.83771 19.3723 1.81464 19.3815 1.79157C19.3907 1.76851 19.4046 1.74544 19.4138 1.72237C19.423 1.6993 19.4323 1.67623 19.4461 1.65317C19.4553 1.6301 19.4645 1.60703 19.4784 1.58396C19.4876 1.56089 19.4968 1.53782 19.5107 1.51014C19.5199 1.48708 19.5291 1.45939 19.543 1.43633C19.5522 1.41326 19.5614 1.38558 19.5707 1.36251C19.5799 1.33944 19.5891 1.31176 19.5983 1.28869C19.6076 1.26562 19.6168 1.23794 19.626 1.21487C19.6353 1.18719 19.6445 1.16412 19.6537 1.13644L19.5522 1.03494C19.5245 1.04417 19.5015 1.0534 19.4738 1.06262C19.4461 1.07185 19.423 1.08108 19.3953 1.09031C19.3677 1.09953 19.3446 1.10876 19.3215 1.11799C19.2985 1.12721 19.2708 1.13644 19.2477 1.14567C19.2246 1.1549 19.197 1.16412 19.1739 1.17335C19.1508 1.18258 19.1231 1.1918 19.1001 1.20103C19.077 1.21026 19.0539 1.21949 19.0263 1.22871L18.9571 1.2564L18.8878 1.28408C18.8648 1.2933 18.8417 1.30253 18.8186 1.31637C18.7956 1.3256 18.7725 1.33483 18.7494 1.34867C18.7264 1.35789 18.7033 1.36712 18.6802 1.38096C18.6572 1.39019 18.6341 1.39942 18.6156 1.41326C18.5926 1.42249 18.5741 1.43171 18.5511 1.44555C18.528 1.45478 18.5095 1.46401 18.4865 1.47785C18.4634 1.48708 18.4449 1.4963 18.4219 1.51014C18.3988 1.51937 18.3803 1.5286 18.3619 1.54244C18.3434 1.55167 18.3204 1.56089 18.3019 1.57473C18.2835 1.58396 18.2604 1.59319 18.2419 1.60703C18.2235 1.61626 18.2004 1.62548 18.182 1.63932C18.1635 1.64855 18.1451 1.65778 18.122 1.67162L18.0666 1.70391L18.0113 1.73621C17.9928 1.74544 17.9744 1.75467 17.9559 1.76851L17.9005 1.79619C17.8821 1.80541 17.8636 1.81464 17.8498 1.82387L17.799 1.85155C17.7806 1.86078 17.7667 1.87 17.7483 1.87923L17.6975 1.90691L17.6514 1.9346C17.6376 1.94382 17.6191 1.95305 17.6053 1.96228L17.5591 1.98996L17.513 2.01764L17.4715 2.04532L17.4299 2.073L17.3884 2.10069L17.3515 2.12375L17.3146 2.14682L17.2777 2.16989L17.2408 2.19296L17.2085 2.21603L17.1762 2.23909L17.1439 2.26216L17.1116 2.28062L17.0839 2.29907L17.0562 2.31753L17.0286 2.33598L17.0055 2.35443L16.9824 2.37289L16.9594 2.38673L16.9409 2.40057L16.9224 2.41441L16.904 2.42825L16.8902 2.44209L16.8763 2.45132L16.8625 2.46055L16.8486 2.46977L16.8394 2.479L16.8302 2.48362L16.8209 2.48823L16.8163 2.49284L16.8117 2.49746H16.8071L13.8175 5.43171L12.761 6.46516L11.806 7.40172L11.8152 7.38788ZM5.62833 14.7973L5.63756 14.8158C5.62833 14.8158 5.62372 14.8112 5.61449 14.8112C5.61449 14.802 5.60988 14.7973 5.60988 14.7881L5.62833 14.7973Z" fill="#ED1C24"/>
</g>
<defs>
<clipPath id="clip0_2081_840">
<rect width="20" height="20" fill="white" transform="matrix(1 0 0 -1 0.0458984 20.6244)"/>
</clipPath>
</defs>
</svg>
