<svg width="21" height="21" viewBox="0 0 21 21" fill="none" xmlns="http://www.w3.org/2000/svg">
<path d="M4.11584 4.63197H16.6158C16.7619 4.63191 16.9077 4.64117 17.0526 4.65971C17.0035 4.31509 16.8851 3.98398 16.7046 3.68635C16.5241 3.38871 16.2851 3.13072 16.0022 2.92791C15.7193 2.72511 15.3982 2.58171 15.0584 2.50634C14.7185 2.43097 14.367 2.42521 14.0248 2.4894L3.74475 4.24447H3.73303C3.08775 4.36787 2.51392 4.73296 2.12874 5.26518C2.70905 4.85241 3.40371 4.63106 4.11584 4.63197ZM16.6158 5.56947H4.11584C3.45303 5.5702 2.81756 5.83382 2.34888 6.30251C1.88019 6.77119 1.61657 7.40666 1.61584 8.06948V15.5695C1.61657 16.2323 1.88019 16.8678 2.34888 17.3364C2.81756 17.8051 3.45303 18.0688 4.11584 18.0695H16.6158C17.2787 18.0688 17.9141 17.8051 18.3828 17.3364C18.8515 16.8678 19.1151 16.2323 19.1158 15.5695V8.06948C19.1151 7.40666 18.8515 6.77119 18.3828 6.30251C17.9141 5.83382 17.2787 5.5702 16.6158 5.56947ZM14.7604 13.0695C14.5131 13.0695 14.2715 12.9962 14.0659 12.8588C13.8604 12.7215 13.7001 12.5262 13.6055 12.2978C13.5109 12.0694 13.4862 11.8181 13.5344 11.5756C13.5826 11.3331 13.7017 11.1104 13.8765 10.9356C14.0513 10.7608 14.274 10.6417 14.5165 10.5935C14.759 10.5453 15.0103 10.57 15.2387 10.6646C15.4671 10.7592 15.6624 10.9195 15.7997 11.125C15.9371 11.3306 16.0104 11.5722 16.0104 11.8195C16.0104 12.151 15.8787 12.4689 15.6443 12.7034C15.4098 12.9378 15.0919 13.0695 14.7604 13.0695Z" fill="white"/>
<path d="M1.63538 10.7061V6.81934C1.63538 5.97285 2.10413 4.55371 3.73108 4.24629C5.11194 3.9873 6.47913 3.9873 6.47913 3.9873C6.47913 3.9873 7.37756 4.6123 6.63538 4.6123C5.89319 4.6123 5.91272 5.56934 6.63538 5.56934C7.35803 5.56934 6.63538 6.4873 6.63538 6.4873L3.72522 9.78809L1.63538 10.7061Z" fill="white"/>
</svg>
