<svg width="320" height="139" viewBox="0 0 320 139" fill="none" xmlns="http://www.w3.org/2000/svg">
<g clip-path="url(#clip0_2033_391)">
<path d="M36.6486 138.258H30.5148V121.866L20.5618 138.258H16.1157L6.1531 121.866V138.258H0V114.316H8.31344L18.3243 131.219L28.3544 114.316H36.6486V138.258Z" fill="white"/>
<path d="M38.7318 126.253C38.7318 118.318 43.2453 113.979 53.7866 113.979C64.3279 113.979 68.8318 118.356 68.8318 126.253C68.8318 134.15 64.2797 138.605 53.7866 138.605C43.2935 138.605 38.7318 134.227 38.7318 126.253ZM62.6787 126.253C62.6787 121.432 60.2098 119.147 53.7866 119.147C47.3635 119.147 44.8849 121.365 44.8849 126.253C44.8849 131.142 47.3827 133.437 53.7866 133.437C60.1905 133.437 62.6884 131.132 62.6884 126.253H62.6787Z" fill="white"/>
<path d="M101.922 114.316V138.258H93.5503L77.2224 120.304V138.258H71.0693V114.316H79.4117L95.8071 132.308V114.316H101.922Z" fill="white"/>
<path d="M110.823 119.214V124.036H129.977V128.48H110.823V133.302H129.977V138.19H104.661V114.316H129.977V119.214H110.823Z" fill="white"/>
<path d="M131.867 114.316H139.284L148.523 125.231L157.734 114.316H165.15L151.648 130.39V138.258H145.485V130.39L131.867 114.316Z" fill="white"/>
<path d="M214.211 114.316V138.258H205.83L189.512 120.304V138.258H183.359V114.316H191.701L208.096 132.308V114.316H214.211Z" fill="white"/>
<path d="M223.113 138.258H216.998V114.316H223.151L223.113 138.258Z" fill="white"/>
<path d="M256.704 114.316V138.258H248.323L232.005 120.304V138.258H225.852V114.316H234.194L250.59 132.308V114.316H256.704Z" fill="white"/>
<path d="M287.807 126.253C287.807 134.565 283.255 138.605 273.437 138.605C263.619 138.605 259.077 134.603 259.077 126.253H265.22C265.22 129.609 266.184 133.437 273.427 133.437C280.67 133.437 281.644 129.58 281.644 126.253V119.504H270.293V114.336H287.807V126.253Z" fill="white"/>
<path d="M310.626 133.167H296.294L293.729 138.258H286.978L299.322 114.316H307.655L320.039 138.258H313.23L310.626 133.167ZM308.34 128.577L303.518 118.867L298.628 128.577H308.34Z" fill="white"/>
<path d="M131.559 0H202.532V58.3538H117.43V14.1256C117.432 10.3801 118.922 6.78863 121.571 4.14012C124.22 1.49161 127.812 0.00255408 131.559 0Z" fill="#ED1C24"/>
<path d="M117.43 58.3538L160 92.0913V65.0454H140.788V53.1953L117.43 58.3538Z" fill="#ED1C24"/>
<path d="M152.921 32.5998L141.984 24.3462C141.133 23.712 140.129 23.3126 139.074 23.1878C138.02 23.0629 136.951 23.2171 135.974 23.6349C134.998 24.0527 134.148 24.7195 133.511 25.5685C132.873 26.4175 132.469 27.4191 132.34 28.473C132.244 29.3218 132.328 30.1813 132.586 30.9954C132.845 31.8095 133.273 32.5597 133.842 33.1969C134.411 33.8341 135.109 34.3439 135.889 34.693C136.668 35.042 137.513 35.2225 138.368 35.2225H152.072C152.374 35.2122 152.664 35.1094 152.905 34.928C153.145 34.7466 153.324 34.4955 153.417 34.2088C153.51 33.9222 153.512 33.6139 153.423 33.326C153.335 33.0381 153.159 32.7845 152.921 32.5998Z" fill="white"/>
<path d="M167.079 32.5998L178.025 24.3462C178.876 23.709 179.88 23.307 180.936 23.1806C181.991 23.0542 183.062 23.2079 184.039 23.6261C185.017 24.0443 185.867 24.7125 186.504 25.5633C187.141 26.4141 187.543 27.4176 187.67 28.473C187.768 29.3213 187.685 30.1806 187.427 30.9947C187.169 31.8088 186.742 32.5591 186.174 33.1965C185.606 33.8339 184.909 34.3439 184.13 34.6931C183.35 35.0422 182.506 35.2226 181.652 35.2225H167.966C167.665 35.2144 167.373 35.114 167.13 34.9348C166.887 34.7556 166.705 34.5063 166.608 34.2204C166.511 33.9346 166.505 33.6259 166.589 33.3361C166.673 33.0463 166.844 32.7894 167.079 32.5998Z" fill="white"/>
</g>
<defs>
<clipPath id="clip0_2033_391">
<rect width="320" height="138.605" fill="white"/>
</clipPath>
</defs>
</svg>
