<svg width="390" height="732" viewBox="0 0 390 732" fill="none" xmlns="http://www.w3.org/2000/svg">
<g opacity="0.8">
<path d="M-42 0V579H434V0H-42Z" fill="black"/>
<path d="M-41.9551 417.321V529.083H434.201V417.321C434.201 417.321 309.545 389.819 230.493 402.206C144.576 415.685 47.0081 417.749 -4.88986 417.749H-4.99031C-27.9594 417.749 -41.9551 417.321 -41.9551 417.321Z" fill="#7B8707"/>
<path d="M393 434V732H0V434H393Z" fill="#161616"/>
<path opacity="0.1" fill-rule="evenodd" clip-rule="evenodd" d="M434 449.42H404.815L417.466 509.387H434V511.223H417.868L421.985 530.804L434 587.712V591.995L424.026 544.511H390.523L403.543 617.206H434V619.409H403.911L415.793 685.862L417.901 697.611L418.604 701.527H434V704.097H419.039L424.06 732H423.022L416.897 697.611L414.822 685.862L412.245 671.421H374.324L376.433 685.862L378.14 697.611L383.16 732H382.156L378.073 704.097H339.583L342.763 732H341.725L337.843 697.611L336.538 685.862L334.897 671.421H297.412L298.583 685.862L299.554 697.611L302.332 732H301.328L299.052 704.097H260.562L261.934 732H260.897L259.257 697.611L258.688 685.862L257.985 671.421H220.5L220.734 685.862L220.935 697.611L221.504 732H220.5L220.031 704.097H181.541L181.073 732H180.069L180.638 697.611L180.838 685.862L181.073 671.421H143.587L142.884 685.862L142.315 697.611L140.675 732H139.638L141.01 704.097H102.52L100.244 732H99.2403L102.018 697.611L102.989 685.862L104.16 671.421H66.2396L64.5996 685.862L63.2609 697.611L59.3784 732H58.3744L61.5539 704.097H23.0308L18.981 732H17.9435L22.9639 697.611L24.7043 685.862L26.8128 671.421H-10.6728L-13.2499 685.862L-15.325 697.611L-21.4499 732H-22.4874L-17.467 704.097H-42V701.527H-17.0319L-16.3291 697.611L-14.2205 685.862L-2.33891 619.409H-38.1845L-42 637.521V633.115L-32.8629 589.792H-42V587.712H-32.4278L-20.4123 530.804L-16.2956 511.223H-42V509.387H-15.894L-3.24258 449.42H-33.7331L-42 483.565V480.138L-40.0253 472.061H-42V470.347H-39.6237L-30.7543 434H-29.9845L-33.3649 447.829H-2.90789L0.00394058 434H0.807201L-6.85726 470.347H24.3026L30.7957 434H31.5655L29.0887 447.829H59.5123L61.5539 434H62.3572L57.0356 470.347H88.1955L92.3457 434H93.1155L91.5424 447.829H122.334L123.472 434H124.242L121.297 470.347H152.456L154.23 434H155L154.331 447.829H184.788L185.022 434H185.792L185.223 470.347H216.349L215.78 434H216.55L216.784 447.829H247.241L246.572 434H247.342L249.116 470.347H280.276L277.33 434H278.1L279.238 447.829H309.695L308.122 434H308.892L313.009 470.347H344.169L338.88 434H339.65L341.692 447.829H372.484L370.007 434H370.777L377.27 470.347H408.43L400.765 434H401.568L404.48 447.829H434V449.42ZM434 440.853V444.035L431.557 434H432.327L434 440.853ZM350.661 509.387H383.428L372.785 449.42H341.926L350.661 509.387ZM313.209 472.061L319.87 530.804L321.209 542.675H354.644L352.937 530.804L344.403 472.061H313.209ZM35.6487 617.328H71.4274L79.7278 544.511H46.2585L35.6487 617.328ZM47.363 530.804L50.2413 511.345H17.8096L14.3288 530.804L4.1876 587.834H39.0291L47.363 530.804ZM75.678 587.712H110.921L115.573 530.804L117.146 511.223H84.3465L82.1375 530.804L75.678 587.712ZM109.448 617.206H145.227L148.775 544.511H115.306L109.448 617.206ZM147.57 587.589H182.411L183.349 530.682L183.683 511.101H151.252L150.314 530.682L147.57 587.589ZM182.847 617.083H218.625L217.487 544.389H183.985L182.847 617.083ZM219.06 587.589H253.902L251.157 530.559L250.22 510.978H217.789L218.123 530.559L219.06 587.589ZM256.245 617.206H292.023L286.166 544.389H252.697L256.245 617.206ZM290.551 587.712H325.392L318.966 530.682L316.757 511.223H284.325L285.932 530.682L290.551 587.712ZM329.643 617.328H365.422L354.845 544.633H321.376L329.643 617.328ZM284.158 509.387H316.556L309.796 449.543H279.305L284.158 509.387ZM249.116 471.938L251.994 530.682L252.563 542.553H285.999L285.028 530.682L280.309 471.938H249.116ZM216.751 449.42L217.722 509.387H250.12L247.208 449.42H216.751ZM184.219 530.682L184.018 542.553H217.454L217.253 530.682L216.316 471.938H185.122L184.219 530.682ZM151.352 509.387H183.717L184.721 449.42H154.23L151.352 509.387ZM121.163 472.061L116.41 530.682L115.473 542.553H148.909L149.478 530.682L152.356 472.061H121.163ZM84.5473 509.387H117.314L122.2 449.42H91.3416L84.5473 509.387ZM56.7678 472.061L48.2332 530.804L46.4928 542.675H79.9286L81.2673 530.804L87.9612 472.061H56.7678ZM18.1108 509.387H50.5091L59.278 449.543H28.7875L18.1108 509.387ZM-22.0858 542.553H11.35L13.4586 530.682L23.9679 471.938H-7.25889L-19.5756 530.682L-22.0858 542.553ZM-2.00422 617.206L10.9819 544.511H-22.4874L-37.7829 617.206H-2.00422ZM27.1141 668.973L38.6944 589.67H3.78597L-10.3046 668.973H27.1141ZM71.1596 619.409H35.314L25.6414 685.862L23.901 697.611L23.3655 701.527H61.7882L62.2233 697.611L63.5621 685.862L71.1596 619.409ZM104.328 668.973L110.754 589.67H75.4437L66.4739 668.973H104.328ZM145.127 619.409H109.281L103.96 685.862L102.989 697.611L102.688 701.527H141.11L141.311 697.611L141.88 685.862L145.127 619.409ZM182.411 589.67H147.503L143.688 668.973H181.106L182.411 589.67ZM219.964 701.405L219.897 697.611L219.73 685.862L218.692 619.409H182.813L181.776 685.862L181.608 697.611L181.541 701.405H219.964ZM257.818 668.973L254.002 589.67H219.094L220.399 668.973H257.818ZM292.224 619.409H256.379L259.625 685.862L260.194 697.611L260.395 701.405H298.818L298.516 697.611L297.546 685.862L292.224 619.409ZM334.63 668.973L325.66 589.67H290.752L297.211 668.973H334.63ZM365.79 619.409H329.944L337.508 685.74L338.847 697.611L339.282 701.405H377.705L377.136 697.611L375.429 685.74L365.79 619.409ZM397.719 589.792H362.409L373.956 669.096H411.81L397.719 589.792ZM387.243 530.804L383.763 511.223H350.929L353.808 530.804L362.108 587.712H397.351L387.243 530.804ZM408.798 472.061H377.604L388.114 530.804L390.222 542.675H423.658L421.148 530.804L408.798 472.061Z" fill="#666666"/>
<path opacity="0.1" d="M434.235 549.154V568.06C402.794 568.417 369.714 568.655 341.622 568.655C333.653 568.655 325.818 568.595 318.05 568.595C194.801 568.12 98.4043 563.839 98.4043 558.607C98.4043 554.088 171.932 550.224 272.715 548.975C294.545 548.737 317.682 548.559 341.622 548.559C369.714 548.559 402.794 548.797 434.235 549.154Z" fill="#666666"/>
<path opacity="0.1" d="M434.234 477.927V579H342.224L318.049 568.595L272.714 548.975L35.7578 446.594L359.099 445.999L434.234 477.927Z" fill="#666666"/>
<path opacity="0.1" d="M434.234 476.559V579H-41.9551V487.975C57.7226 494.752 366.03 524.302 366.03 524.302L434.234 476.559Z" fill="#666666"/>
<g opacity="0.5">
<path d="M-149.79 392.528L40.58 410.838L77.032 412.426L107.13 413.764L200.852 417.944L254.359 420.369C254.359 420.369 420.149 437.257 431.102 439.598C442.054 441.855 564.954 463.844 564.954 463.844V228.745C564.954 228.745 561.275 226.655 554.838 223.143C542.966 216.706 522.148 205.335 498.32 192.627C448.993 166.375 387.042 134.27 366.976 128C336.962 149.988 302.683 180.672 279.776 201.991C264.141 216.622 253.691 226.905 253.691 226.905L90.9941 183.765L90.9105 183.849C89.4892 184.601 56.2979 201.991 25.531 224.815C13.0738 234.012 1.03456 244.045 -8.32925 254.328C-118.605 248.643 -141.513 245.549 -141.513 245.549C-141.513 245.549 -151.462 257.003 -164.839 272.136C-178.634 287.687 -196.024 307.167 -209.902 322.132C-216.507 329.239 -222.36 335.342 -226.623 339.522C-248.528 360.842 -149.79 392.528 -149.79 392.528Z" fill="url(#paint0_linear_2272_1071)"/>
<path opacity="0.5" d="M-8.3291 254.328L75.5273 211.606L83.9714 240.115L95.5926 211.606L131.627 233.176L124.102 211.606L253.691 226.905L90.9943 183.765L90.9107 183.849C89.4894 184.601 56.298 201.991 25.5312 224.815C13.0739 234.012 1.03472 244.045 -8.3291 254.328Z" fill="#A0A0A0"/>
<path opacity="0.5" d="M279.775 201.991L353.432 163.783L380.102 192.627L386.289 163.783L498.32 192.627C448.993 166.375 387.041 134.27 366.976 128C336.962 149.988 302.683 180.672 279.775 201.991Z" fill="#A0A0A0"/>
<path opacity="0.2" d="M107.131 413.764L200.853 417.944L253.691 226.905L107.131 413.764Z" fill="url(#paint1_linear_2272_1071)"/>
</g>
<path d="M-41.9551 374.882V375.886C-41.9551 375.886 -41.9551 375.897 -41.9551 375.919V435.786H434.201V414.357C434.201 414.357 359.869 396.411 268.998 381.812C231.765 375.819 191.753 370.395 152.947 367.013C145.614 366.377 138.315 365.808 131.083 365.306C13.4921 357.404 -32.446 371.399 -40.5823 374.346C-41.5198 374.681 -41.9551 374.882 -41.9551 374.882Z" fill="url(#paint2_linear_2272_1071)"/>
<path opacity="0.1" d="M-41.9551 370.919V393.353C163.327 354.714 434.201 417.929 434.201 417.929V409.357C434.201 409.357 359.869 391.411 268.998 376.812C231.765 370.819 191.753 365.395 152.947 362.013C145.614 361.377 138.315 360.808 131.083 360.306C124.141 359.837 117.444 359.446 110.993 359.134C110.167 359.089 109.353 359.044 108.549 359C97.3994 358.497 87.0198 358.163 77.3099 358.029C-1.00587 356.823 -33.8188 366.902 -40.5823 369.346L-41.9551 370.919Z" fill="url(#paint3_linear_2272_1071)"/>
<path d="M268.998 376.812C359.87 391.411 434.201 409.358 434.201 409.358V351.767C432.46 350.562 430.685 349.424 428.81 348.486C422.248 345.171 414.513 344.033 407.348 345.774C395.227 348.687 385.417 359.602 383.843 371.991C374.267 363.085 362.414 355.651 349.356 354.948C336.298 354.245 322.202 361.946 318.988 374.636C309.478 364.089 293.072 360.506 280.047 366.132C275.259 368.207 270.639 372.058 268.998 376.812Z" fill="#383838"/>
<path opacity="0.3" d="M49.084 296.019H176.619C179.298 292.403 174.242 291.13 167.211 291.13C160.916 291.13 155.324 292.336 151.206 294.144C150.235 290.762 147.623 288.05 144.308 286.912C141.395 281.822 135.369 278.273 128.371 278.273C121.909 278.273 116.25 281.287 113.17 285.74C111.864 285.371 110.491 285.171 109.085 285.171C107.779 285.171 106.507 285.338 105.301 285.673C102.589 279.78 95.6583 275.561 87.4885 275.561C77.946 275.561 70.0441 281.354 68.7048 288.887C65.9927 288.284 63.1467 287.916 60.5685 287.916C52.3318 287.916 49.4523 291.465 49.084 296.019Z" fill="url(#paint4_linear_2272_1071)"/>
<path opacity="0.3" d="M246.163 275.829H374.167C374.167 271.476 369.279 267.927 363.218 267.927C362.258 267.927 361.343 268.016 360.473 268.195C357.392 260.159 349.624 254.467 340.517 254.467C336.365 254.467 332.515 255.639 329.233 257.681C327.358 256.978 325.349 256.576 323.24 256.576C316.979 256.576 311.555 259.992 308.976 264.947C307.001 264.077 304.758 263.574 302.414 263.574C302.325 263.574 302.246 263.574 302.179 263.574C299.467 259.188 294.612 256.242 289.088 256.242C281.253 256.242 274.757 262.135 273.853 269.735C269.5 268.563 264.344 267.927 259.791 267.927C250.047 267.927 246.565 270.874 246.163 275.829Z" fill="url(#paint5_linear_2272_1071)"/>
<path d="M136.317 311.912H53.3457V352.175H136.317V311.912Z" fill="#454545"/>
<path d="M136.317 311.912H53.3457V313.495H136.317V311.912Z" fill="#20180F"/>
<path d="M93.9675 321.553H78.8789V352.122H93.9675V321.553Z" fill="#FEFFFA"/>
<path d="M95.6955 352.123H110.784V321.553H95.6955V352.123Z" fill="#FEFFFA"/>
<path d="M57.4873 311.912H53.3457V352.175H57.4873V311.912Z" fill="black"/>
<path d="M128.295 249H61.3682V253.29H128.295V249Z" fill="#20180F"/>
<path d="M128.295 253.289H61.3673C57.9073 269.255 41.0968 277.834 28.7695 274.736C31.7537 279.37 36.5916 282.124 41.7483 282.124H147.913C153.07 282.124 157.908 279.371 160.892 274.736C148.566 277.834 131.756 269.256 128.295 253.289Z" fill="black"/>
<path d="M61.2061 282.124H128.457C119.977 278.467 111.582 268.238 109.565 253.289H80.0979C78.0816 268.238 69.6861 278.467 61.2061 282.124Z" fill="black"/>
<path d="M139.679 282.124H49.9834V285.665H139.679V282.124Z" fill="black"/>
<path d="M139.679 282.124H49.9834V283.266H139.679V282.124Z" fill="#20180F"/>
<path d="M53.7168 285.665C53.7168 287.622 55.1556 289.208 56.9312 289.208H132.733C134.508 289.208 135.947 287.622 135.947 285.665H53.7168Z" fill="#20180F"/>
<path d="M53.8746 286.709H135.789C135.882 286.377 135.947 286.031 135.947 285.666H53.7168C53.7168 286.031 53.7818 286.377 53.8746 286.709Z" fill="#20180F"/>
<path d="M132.176 289.208H57.4873V306.045H132.176V289.208Z" fill="#454545"/>
<path d="M143.704 306.452H45.96V298.32H143.704V306.452ZM46.7733 305.639H142.891V299.134H46.7733V305.639Z" fill="#20180F"/>
<path d="M143.704 307.349H45.96V298.32H143.704V307.349ZM46.7733 306.535H142.891V299.134H46.7733V306.535Z" fill="#20180F"/>
<path d="M145.363 306.045H44.3018V308.653H145.363V306.045Z" fill="#20180F"/>
<path d="M139.679 308.653H49.9834V311.913H139.679V308.653Z" fill="black"/>
<path d="M132.176 352.176H136.317V311.913H132.176V352.176Z" fill="black"/>
<path d="M70.8902 327.004H66.8975V352.122H70.8902V327.004Z" fill="black"/>
<path d="M66.8973 330.221H32.5312V334.321H66.8973V330.221Z" fill="black"/>
<path d="M39.314 331.137H36.0752V352.123H39.314V331.137Z" fill="black"/>
<path d="M118.774 352.123H122.767V327.004H118.774V352.123Z" fill="black"/>
<path d="M122.766 334.321H157.132V330.221H122.766V334.321Z" fill="black"/>
<path d="M150.349 352.122H153.588V331.136H150.349V352.122Z" fill="black"/>
<path d="M57.4873 311.912H53.3457V313.495H57.4873V311.912Z" fill="#20180F"/>
<path d="M136.317 311.912H132.176V313.495H136.317V311.912Z" fill="#20180F"/>
<path d="M157.132 351.87H32.5312V354.99H157.132V351.87Z" fill="#20180F"/>
<path d="M161.664 355H28V382H161.664V355Z" fill="#20180F"/>
<path d="M46.3668 299.121C45.8422 299.121 45.416 298.695 45.416 298.171C45.416 297.646 45.843 297.22 46.3668 297.22C46.8906 297.22 47.3177 297.646 47.3177 298.171C47.3177 298.694 46.8906 299.121 46.3668 299.121ZM46.3668 298.033C46.2912 298.033 46.2294 298.095 46.2294 298.171C46.2294 298.321 46.5043 298.321 46.5043 298.171C46.5043 298.095 46.4425 298.033 46.3668 298.033Z" fill="#20180F"/>
<path d="M143.298 299.121C142.774 299.121 142.347 298.695 142.347 298.171C142.347 297.646 142.773 297.22 143.298 297.22C143.822 297.22 144.248 297.646 144.248 298.171C144.248 298.694 143.821 299.121 143.298 299.121ZM143.298 298.033C143.222 298.033 143.16 298.095 143.16 298.171C143.16 298.321 143.435 298.321 143.435 298.171C143.435 298.095 143.372 298.033 143.298 298.033Z" fill="#20180F"/>
<path d="M344.19 317.267H243.13V348.625H344.19V317.267Z" fill="#454545"/>
<path d="M300.363 328.553H286.96V348.625H300.363V328.553Z" fill="#20180F"/>
<path d="M260.079 257.305C268.4 257.305 293.662 257.305 293.662 257.305C293.662 257.305 318.923 257.305 327.245 257.305C335.566 257.305 343.027 251.61 343.027 251.61C343.027 251.61 338.149 266.488 326.958 266.488C315.767 266.488 293.663 266.488 293.663 266.488C293.663 266.488 271.557 266.488 260.366 266.488C249.176 266.488 244.298 251.61 244.298 251.61C244.298 251.61 251.757 257.305 260.079 257.305Z" fill="black"/>
<path d="M293.662 257.305C293.662 257.305 275.665 257.305 265.048 257.305C266.597 261.504 269.27 266.488 273.243 266.488C280.105 266.488 293.662 266.488 293.662 266.488C293.662 266.488 307.218 266.488 314.081 266.488C318.053 266.488 320.726 261.504 322.276 257.305C311.657 257.305 293.662 257.305 293.662 257.305Z" fill="black"/>
<path d="M332.11 290.826H255.211V306.663H332.11V290.826Z" fill="#454545"/>
<path d="M344.19 317.267H243.13V320.659H344.19V317.267Z" fill="#20180F"/>
<path d="M257.235 317.267H251.536V341.993H257.235V317.267Z" fill="black"/>
<path d="M258.722 341.993H250.05V348.625H258.722V341.993Z" fill="black"/>
<path d="M369 353.038H219.918V381H369V353.038Z" fill="#20180F"/>
<path d="M323.201 266.487H264.121V281.643H323.201V266.487Z" fill="#454545"/>
<path d="M326.377 266.487H260.944V268.811H326.377V266.487Z" fill="#20180F"/>
<path d="M326.377 266.487H260.944V267.649H326.377V266.487Z" fill="#20180F"/>
<path d="M330.086 341.993H335.785V317.266H330.086V341.993Z" fill="black"/>
<path d="M328.599 348.625H337.271V341.993H328.599V348.625Z" fill="black"/>
<path d="M272.276 317.267H266.577V341.993H272.276V317.267Z" fill="black"/>
<path d="M273.763 341.993H265.091V348.625H273.763V341.993Z" fill="black"/>
<path d="M315.045 341.993H320.744V317.266H315.045V341.993Z" fill="black"/>
<path d="M313.558 348.625H322.23V341.993H313.558V348.625Z" fill="black"/>
<path d="M293.662 227L260.079 257.305H327.245L293.662 227Z" fill="black"/>
<path d="M293.661 234.684L268.593 257.305H318.729L293.661 234.684Z" fill="#20180F"/>
<path d="M347.572 317.267H239.75V320.659H347.572V317.267Z" fill="#20180F"/>
<path d="M347.572 317.267H239.75V318.408H347.572V317.267Z" fill="#20180F"/>
<path d="M324.336 297.107H323.531V306.738H324.336V297.107Z" fill="black"/>
<path d="M304.155 297.107H303.35V306.738H304.155V297.107Z" fill="black"/>
<path d="M283.972 297.107H283.167V306.738H283.972V297.107Z" fill="black"/>
<path d="M263.789 297.107H262.984V306.738H263.789V297.107Z" fill="black"/>
<path d="M332.11 296.704H255.211V297.509H332.11V296.704Z" fill="black"/>
<path d="M317.322 272.743H316.517V281.643H317.322V272.743Z" fill="black"/>
<path d="M301.816 272.743H301.011V281.643H301.816V272.743Z" fill="black"/>
<path d="M286.311 272.743H285.506V281.643H286.311V272.743Z" fill="black"/>
<path d="M270.805 272.743H270V281.643H270.805V272.743Z" fill="black"/>
<path d="M323.2 272.34H264.121V273.145H323.2V272.34Z" fill="black"/>
<path d="M255.797 277.537C255.252 277.537 254.809 277.093 254.809 276.548C254.809 276.003 255.252 275.56 255.797 275.56C256.343 275.56 256.786 276.003 256.786 276.548C256.785 277.094 256.342 277.537 255.797 277.537ZM255.797 276.365C255.696 276.365 255.614 276.447 255.614 276.548C255.614 276.75 255.98 276.749 255.981 276.548C255.981 276.448 255.898 276.365 255.797 276.365Z" fill="#20180F"/>
<path d="M331.927 283.091H255.396V276.733H331.927V283.091ZM256.2 282.287H331.122V277.538H256.2V282.287Z" fill="#20180F"/>
<path d="M331.525 277.537C330.98 277.537 330.537 277.093 330.537 276.548C330.537 276.003 330.981 275.56 331.525 275.56C332.07 275.56 332.514 276.003 332.514 276.548C332.513 277.094 332.07 277.537 331.525 277.537ZM331.525 276.365C331.424 276.365 331.342 276.447 331.342 276.548C331.341 276.75 331.708 276.749 331.709 276.548C331.708 276.448 331.626 276.365 331.525 276.365Z" fill="#20180F"/>
<path d="M335.555 281.644C327.234 281.644 293.662 281.644 293.662 281.644C293.662 281.644 260.09 281.644 251.768 281.644C243.447 281.644 235.986 275.949 235.986 275.949C235.986 275.949 240.864 290.827 252.055 290.827C263.246 290.827 293.662 290.827 293.662 290.827C293.662 290.827 324.078 290.827 335.269 290.827C346.46 290.827 351.337 275.949 351.337 275.949C351.337 275.949 343.877 281.644 335.555 281.644Z" fill="black"/>
<path d="M328.017 281.644H319.845C307.679 281.644 293.661 281.644 293.661 281.644C293.661 281.644 279.643 281.644 267.477 281.644H259.305C260.883 285.843 263.608 290.827 267.656 290.827C280.026 290.827 293.66 290.827 293.66 290.827C293.66 290.827 307.294 290.827 319.665 290.827C323.714 290.826 326.439 285.843 328.017 281.644Z" fill="black"/>
<path d="M335.268 290.826H252.055V293.272H335.268V290.826Z" fill="#20180F"/>
<path d="M335.268 290.826H252.055V292.049H335.268V290.826Z" fill="#20180F"/>
<path d="M236.096 306.738C245.638 306.738 293.661 306.738 293.661 306.738C293.661 306.738 341.684 306.738 351.225 306.738C360.767 306.738 369.32 300.208 369.32 300.208C369.32 300.208 363.727 317.267 350.896 317.267C338.065 317.267 293.661 317.267 293.661 317.267C293.661 317.267 249.257 317.267 236.425 317.267C223.593 317.267 218 300.208 218 300.208C218 300.208 226.555 306.738 236.096 306.738Z" fill="black"/>
<path d="M247.748 302.304C247.203 302.304 246.76 301.861 246.76 301.316C246.76 300.771 247.203 300.327 247.748 300.327C248.294 300.327 248.737 300.771 248.737 301.316C248.737 301.861 248.293 302.304 247.748 302.304ZM247.748 301.132C247.648 301.132 247.565 301.214 247.565 301.316C247.565 301.518 247.932 301.516 247.932 301.316C247.932 301.214 247.85 301.132 247.748 301.132Z" fill="#20180F"/>
<path d="M339.977 307.858H247.347V301.499H339.977V307.858ZM248.152 307.053H339.172V302.304H248.152V307.053Z" fill="#20180F"/>
<path d="M339.574 302.304C339.029 302.304 338.586 301.861 338.586 301.316C338.586 300.771 339.029 300.327 339.574 300.327C340.119 300.327 340.563 300.771 340.563 301.316C340.562 301.861 340.118 302.304 339.574 302.304ZM339.574 301.132C339.473 301.132 339.391 301.214 339.391 301.316C339.39 301.518 339.757 301.516 339.758 301.316C339.757 301.214 339.675 301.132 339.574 301.132Z" fill="#20180F"/>
<path d="M341.001 306.738H331.22C314.312 306.738 293.662 306.738 293.662 306.738C293.662 306.738 273.012 306.738 256.103 306.738H246.321C248.21 311.553 251.471 317.267 256.318 317.267C273.418 317.267 293.661 317.267 293.661 317.267C293.661 317.267 313.904 317.267 331.004 317.267C335.851 317.267 339.112 311.553 341.001 306.738Z" fill="black"/>
<path d="M355.638 348.625H231.683V353.037H355.638V348.625Z" fill="#20180F"/>
<path d="M260.079 257.305H327.245L325.578 255.801H261.745L260.079 257.305Z" fill="#20180F"/>
<path fill-rule="evenodd" clip-rule="evenodd" d="M55.6803 384.436V384.369L-42.0889 384.436V381.322L-7.66877 381.289H-9.17549V380.284C-11.0505 379.815 -12.4233 378.141 -12.4233 376.132V376.099C-14.2648 375.898 -15.7381 374.592 -16.1733 372.851H-20.8274C-21.2627 374.592 -22.7359 375.931 -24.544 376.099C-24.544 376.099 -24.544 376.11 -24.544 376.132C-24.544 378.141 -25.9168 379.815 -27.7918 380.284V381.322H-29.8677V380.284C-31.7427 379.815 -33.149 378.141 -33.149 376.132V376.099C-34.9571 375.931 -36.4303 374.592 -36.8656 372.884H-42.0889V370.809H-36.8656C-36.4303 369.067 -34.9571 367.728 -33.149 367.561V367.527C-33.149 365.518 -31.7762 363.844 -29.9012 363.375V362.337L-42.0889 362.371V359.224L336.432 358.989V359.056L434.234 358.989V362.103L422.013 362.137V363.141C423.888 363.61 425.261 365.284 425.261 367.293C425.261 367.315 425.261 367.326 425.261 367.326C427.103 367.494 428.576 368.833 429.011 370.574L434.234 370.541V372.65H429.011C428.576 374.391 427.103 375.697 425.295 375.864C425.295 375.887 425.295 375.898 425.295 375.898C425.295 377.907 423.888 379.614 422.013 380.083V381.088H420.038H434.234V384.202L55.6803 384.436ZM-7.09957 381.289H11.5167V380.251C9.64172 379.782 8.26894 378.108 8.26894 376.099V376.065C6.42739 375.898 4.95416 374.592 4.51889 372.851H-0.135189C-0.570461 374.592 -2.04369 375.898 -3.85175 376.099C-3.85175 378.108 -5.22454 379.815 -7.09957 380.284V381.289ZM11.7846 381.255H33.2804H32.2425V380.251C30.3674 379.782 28.9612 378.074 28.9612 376.065C27.1531 375.864 25.6799 374.559 25.2446 372.818H20.5905C20.1553 374.559 18.682 375.864 16.8405 376.065C16.8628 376.065 16.874 376.076 16.874 376.099C16.874 378.108 15.4677 379.782 13.5927 380.251V381.255H11.7846ZM34.3184 381.255H52.9347V380.217C51.0597 379.748 49.6869 378.074 49.6869 376.065V376.032C47.8454 375.864 46.3721 374.525 45.9368 372.818H41.2828C40.8475 374.559 39.3743 375.864 37.5662 376.065C37.5662 378.074 36.1934 379.782 34.3184 380.251V381.255ZM54.6758 381.222H67.8679V380.284C65.9929 379.815 64.6201 378.108 64.6201 376.099C63.2808 375.965 62.1089 375.195 61.4058 374.123C60.7362 375.161 59.5977 375.898 58.2584 376.032C58.2584 376.032 58.2584 376.043 58.2584 376.065C58.2584 378.074 56.8857 379.748 55.0106 380.217V381.222H54.6758ZM67.801 368.699C68.5041 368.029 69.3747 367.561 70.3791 367.46C70.3791 367.036 70.4349 366.634 70.5465 366.255C70.2452 365.686 69.609 365.284 68.9059 365.317C67.8679 365.317 67.0309 366.154 67.0309 367.159C67.0309 367.795 67.3322 368.331 67.801 368.699ZM402.125 366.958C402.125 365.92 401.288 365.083 400.25 365.083C399.212 365.083 398.375 365.92 398.375 366.958C398.375 367.996 399.212 368.833 400.25 368.833C401.288 368.833 402.125 367.996 402.125 366.958ZM336.465 381.121H337.101V380.117C335.226 379.648 333.854 377.94 333.854 375.931C332.481 375.797 331.342 375.027 330.639 373.922C329.97 374.994 328.831 375.73 327.492 375.864C327.492 377.907 326.119 379.581 324.244 380.05V381.054H322.269H336.465V381.121ZM338.575 381.121L419.937 381.054V380.05C418.062 379.581 416.69 377.907 416.69 375.898V375.864C414.848 375.697 413.375 374.358 412.939 372.65H408.285C407.85 374.358 406.377 375.697 404.569 375.864C404.569 375.887 404.569 375.898 404.569 375.898C404.569 377.907 403.196 379.614 401.321 380.083V381.088H399.212V380.083C397.37 379.614 395.964 377.907 395.964 375.898C394.156 375.697 392.683 374.391 392.247 372.65H387.593C387.158 374.391 385.685 375.697 383.843 375.898C383.843 377.94 382.47 379.614 380.595 380.083V381.088H378.519V380.083C376.644 379.614 375.272 377.94 375.272 375.931V375.898C373.43 375.697 371.957 374.391 371.522 372.65H366.867C366.432 374.391 364.959 375.73 363.151 375.898C363.151 375.898 363.151 375.909 363.151 375.931C363.151 377.94 361.778 379.614 359.903 380.083V381.121H357.794V380.083C355.952 379.614 354.546 377.94 354.546 375.931V375.898C352.738 375.73 351.265 374.391 350.829 372.684H346.175C345.74 374.425 344.267 375.73 342.425 375.931C342.425 377.94 341.052 379.648 339.177 380.117V381.121H338.575ZM399.245 362.137H400.919L324.244 362.17V363.108C326.119 363.576 327.525 365.284 327.525 367.293C328.865 367.427 330.003 368.197 330.706 369.302C331.409 368.23 332.548 367.494 333.854 367.36C333.854 365.317 335.226 363.643 337.101 363.175V362.17H339.177V363.175C341.052 363.643 342.459 365.317 342.459 367.326C342.459 367.349 342.459 367.36 342.459 367.36C344.267 367.527 345.74 368.867 346.175 370.608H350.829C351.265 368.867 352.738 367.527 354.579 367.36V367.326C354.546 365.317 355.952 363.643 357.827 363.175V362.137H359.903V363.175C361.778 363.61 363.151 365.317 363.151 367.326C363.151 367.326 363.151 367.338 363.151 367.36C364.992 367.527 366.466 368.833 366.901 370.574H371.555C371.99 368.833 373.464 367.527 375.272 367.326C375.272 365.317 376.644 363.61 378.519 363.141V362.137H380.595V363.141C382.47 363.61 383.877 365.284 383.877 367.326C385.685 367.527 387.158 368.833 387.593 370.574H392.247C392.683 368.833 394.156 367.527 395.997 367.326V367.293C395.964 365.284 397.37 363.61 399.245 363.141V362.137ZM395.662 369.737C394.624 369.737 393.787 370.574 393.787 371.612C393.787 372.65 394.624 373.487 395.662 373.487C396.7 373.487 397.537 372.65 397.537 371.612C397.537 370.574 396.667 369.737 395.662 369.737ZM384.211 369.737C383.173 369.737 382.336 370.574 382.336 371.612C382.336 372.65 383.173 373.487 384.211 373.487C385.249 373.487 386.086 372.65 386.086 371.612C386.086 370.574 385.249 369.737 384.211 369.737ZM377.716 376.266C377.716 377.304 378.553 378.141 379.591 378.141C380.595 378.141 381.466 377.304 381.466 376.266C381.466 375.228 380.595 374.391 379.591 374.391C378.553 374.391 377.716 375.228 377.716 376.266ZM379.557 368.867C380.595 368.867 381.432 368.029 381.432 366.992C381.432 365.954 380.595 365.117 379.557 365.117C378.519 365.117 377.682 365.954 377.682 366.992C377.682 368.029 378.553 368.867 379.557 368.867ZM374.937 369.737C373.899 369.737 373.062 370.608 373.062 371.612C373.062 372.65 373.899 373.487 374.937 373.487C375.975 373.487 376.812 372.65 376.812 371.612C376.812 370.574 375.975 369.737 374.937 369.737ZM363.486 369.771C362.448 369.771 361.611 370.608 361.611 371.646C361.611 372.684 362.481 373.521 363.486 373.521C364.524 373.487 365.361 372.65 365.361 371.646C365.361 370.608 364.524 369.771 363.486 369.771ZM356.99 376.266C356.99 377.304 357.827 378.141 358.865 378.141C359.903 378.141 360.74 377.304 360.74 376.266C360.74 375.228 359.903 374.391 358.865 374.391C357.827 374.391 356.99 375.228 356.99 376.266ZM358.865 368.867C359.903 368.867 360.74 368.029 360.74 366.992C360.74 365.954 359.903 365.117 358.865 365.117C357.827 365.117 356.99 365.954 356.99 366.992C356.99 368.029 357.827 368.867 358.865 368.867ZM354.245 369.771C353.207 369.771 352.369 370.608 352.369 371.646C352.369 372.684 353.207 373.521 354.245 373.521C355.282 373.521 356.12 372.684 356.12 371.646C356.12 370.608 355.282 369.771 354.245 369.771ZM342.793 369.771C341.755 369.771 340.918 370.608 340.918 371.646C340.918 372.684 341.755 373.521 342.793 373.521C343.831 373.521 344.668 372.684 344.668 371.646C344.668 370.608 343.831 369.771 342.793 369.771ZM338.139 368.9C339.177 368.9 340.014 368.063 340.014 367.025C340.014 365.987 339.177 365.15 338.139 365.15C337.101 365.15 336.264 365.987 336.264 367.025C336.264 368.063 337.135 368.9 338.139 368.9ZM331.912 372.617C332.246 373.152 332.849 373.521 333.519 373.521C334.188 373.521 334.791 373.152 335.126 372.617H331.912ZM335.025 370.541C334.657 370.072 334.121 369.771 333.485 369.771C332.883 369.771 332.313 370.072 331.979 370.541H335.025ZM336.298 376.3C336.298 377.304 337.135 378.141 338.173 378.141C339.177 378.141 340.048 377.304 340.048 376.266C340.048 375.228 339.177 374.391 338.173 374.391C337.135 374.391 336.298 375.262 336.298 376.3ZM82.1985 369.469C82.9016 368.398 84.04 367.661 85.3458 367.527C85.3458 365.485 86.7186 363.811 88.5937 363.342V362.337H90.6696V363.342C91.3727 363.509 91.9754 363.844 92.4776 364.279C93.0134 363.811 93.6495 363.442 94.3862 363.275V362.337H75.7363V363.275C77.6114 363.744 79.0176 365.451 79.0176 367.46C80.3569 367.594 81.4953 368.364 82.1985 369.469ZM92.5111 372.449C92.6004 372.226 92.6451 371.992 92.6451 371.746C92.6451 371.523 92.6116 371.311 92.5446 371.11C92.4553 371.333 92.4107 371.567 92.4107 371.813C92.4107 372.036 92.4442 372.248 92.5111 372.449ZM97.2991 367.092C97.2991 366.087 96.4621 365.217 95.4241 365.217C94.6875 365.25 94.0513 365.652 93.75 366.255C93.8839 366.657 93.9509 367.07 93.9509 367.494C93.9509 367.516 93.9509 367.527 93.9509 367.527C94.9219 367.628 95.7924 368.029 96.4621 368.666C96.9643 368.331 97.2991 367.762 97.2991 367.092ZM90.7031 381.222H94.3862V380.217C93.683 380.05 93.0803 379.715 92.5781 379.246C92.0424 379.748 91.4062 380.083 90.7031 380.284V381.222ZM94.8549 381.222L109.319 381.188V380.251C107.444 379.782 106.072 378.108 106.072 376.065C104.699 375.931 103.56 375.161 102.857 374.09C102.188 375.128 101.049 375.864 99.7099 375.998C99.7099 375.998 99.7099 376.01 99.7099 376.032C99.7099 378.041 98.3371 379.715 96.4621 380.184V381.188L94.8549 381.222ZM98.538 372.851C98.8728 373.32 99.442 373.621 100.045 373.621C100.681 373.621 101.217 373.32 101.551 372.851H98.538ZM101.652 370.775C101.317 370.239 100.748 369.871 100.078 369.871C99.3751 369.871 98.8058 370.239 98.471 370.775H101.652ZM102.924 369.469C103.594 368.398 104.732 367.661 106.072 367.527C106.072 365.518 107.444 363.811 109.319 363.342V362.337H111.395V363.342C112.065 363.509 112.701 363.844 113.203 364.313C113.739 363.811 114.375 363.476 115.078 363.275V362.337H96.4621V363.308C98.3371 363.744 99.7099 365.451 99.7099 367.46C99.7099 367.46 99.7099 367.471 99.7099 367.494C101.049 367.628 102.221 368.364 102.924 369.469ZM325.081 366.992C325.081 365.954 324.244 365.117 323.206 365.117C322.503 365.117 321.867 365.518 321.565 366.121C321.677 366.523 321.733 366.947 321.733 367.393C322.704 367.494 323.574 367.929 324.244 368.532C324.746 368.197 325.081 367.628 325.081 366.992ZM322.168 362.204H306.364H303.552V363.175C305.427 363.643 306.8 365.317 306.8 367.326C306.8 367.326 306.8 367.338 306.8 367.36C308.139 367.494 309.311 368.23 310.014 369.335C310.684 368.264 311.822 367.527 313.161 367.393C313.161 365.384 314.534 363.677 316.409 363.208V362.204H318.485V363.208C319.155 363.375 319.791 363.71 320.293 364.179C320.829 363.677 321.465 363.342 322.168 363.141V362.204ZM311.219 372.684C311.554 373.219 312.157 373.554 312.827 373.554C313.496 373.554 314.099 373.219 314.4 372.684H311.219ZM314.333 370.574C313.998 370.139 313.463 369.838 312.827 369.838C312.19 369.838 311.655 370.139 311.32 370.608L314.333 370.574ZM315.572 376.3C315.572 377.338 316.409 378.175 317.447 378.175C318.184 378.175 318.82 377.739 319.121 377.137C318.987 376.757 318.92 376.344 318.92 375.898V375.864C317.949 375.764 317.079 375.362 316.409 374.726C315.907 375.061 315.572 375.63 315.572 376.3ZM320.327 372.282C320.416 372.081 320.461 371.858 320.461 371.612C320.461 371.367 320.427 371.143 320.36 370.942C320.271 371.166 320.226 371.4 320.226 371.646C320.226 371.869 320.26 372.081 320.327 372.282ZM319.088 366.121C318.753 365.552 318.15 365.15 317.447 365.15C316.409 365.15 315.572 365.987 315.572 367.025C315.572 367.661 315.873 368.197 316.342 368.532C317.012 367.862 317.916 367.427 318.92 367.326V367.293C318.92 366.891 318.976 366.5 319.088 366.121ZM109.252 368.666C109.922 367.996 110.826 367.561 111.831 367.46V367.427C111.831 367.025 111.886 366.634 111.998 366.255C111.663 365.686 111.06 365.284 110.357 365.284C109.319 365.284 108.482 366.121 108.482 367.159C108.482 367.795 108.784 368.331 109.252 368.666ZM113.237 372.416C113.326 372.215 113.371 371.98 113.371 371.713C113.371 371.489 113.337 371.277 113.27 371.076C113.181 371.3 113.136 371.534 113.136 371.78C113.136 372.003 113.17 372.215 113.237 372.416ZM114.476 366.221C114.587 366.623 114.643 367.047 114.643 367.494C114.643 367.494 114.643 367.505 114.643 367.527C115.614 367.594 116.485 368.029 117.154 368.666C117.657 368.331 117.991 367.762 117.991 367.092C117.991 366.054 117.154 365.217 116.116 365.217C115.413 365.217 114.777 365.619 114.476 366.221ZM130.045 381.188V380.251C128.17 379.782 126.764 378.108 126.764 376.065C125.424 375.931 124.286 375.161 123.583 374.09C122.88 375.128 121.741 375.864 120.436 375.998C120.436 375.998 120.436 376.01 120.436 376.032C120.436 378.041 119.063 379.715 117.188 380.184V381.188H115.112V380.184C114.409 380.016 113.806 379.681 113.27 379.246C112.768 379.715 112.132 380.083 111.395 380.251V381.222L130.045 381.188ZM119.264 372.818C119.632 373.286 120.168 373.588 120.804 373.588C121.407 373.588 121.976 373.253 122.311 372.818H119.264ZM122.344 370.708C122.043 370.172 121.44 369.838 120.77 369.838C120.101 369.838 119.498 370.172 119.163 370.708H122.344ZM123.616 369.402C124.286 368.364 125.424 367.628 126.764 367.494V367.46C126.764 365.451 128.137 363.744 130.012 363.308V362.27H132.088V363.275C132.791 363.476 133.393 363.811 133.896 364.246C134.431 363.777 135.067 363.409 135.771 363.241V362.27L117.154 362.304V363.241C119.029 363.71 120.402 365.384 120.436 367.393C120.413 367.416 120.402 367.427 120.402 367.427C121.775 367.561 122.913 368.331 123.616 369.402ZM138.717 367.059C138.717 366.021 137.847 365.183 136.842 365.183C136.105 365.183 135.469 365.585 135.168 366.188C135.302 366.59 135.369 367.014 135.369 367.46C135.369 367.46 135.369 367.471 135.369 367.494C136.306 367.561 137.177 367.996 137.847 368.632C138.382 368.297 138.717 367.728 138.717 367.059ZM129.945 368.632C130.648 367.963 131.518 367.527 132.523 367.427V367.393C132.523 366.992 132.579 366.601 132.69 366.221C132.389 365.652 131.753 365.25 131.05 365.25C130.012 365.25 129.175 366.088 129.175 367.125C129.175 367.762 129.476 368.297 129.945 368.632ZM126.429 369.871C125.793 369.905 125.257 370.206 124.922 370.641H127.936C127.601 370.206 127.065 369.871 126.429 369.871ZM124.822 372.751C125.157 373.286 125.759 373.621 126.429 373.621C127.099 373.621 127.701 373.286 128.036 372.751H124.822ZM129.175 376.4C129.175 377.438 130.012 378.275 131.05 378.275C131.753 378.275 132.389 377.84 132.69 377.237C132.579 376.835 132.523 376.422 132.523 375.998V375.965C131.552 375.864 130.681 375.463 130.012 374.826C129.509 375.161 129.175 375.73 129.175 376.4ZM133.929 372.382C134.018 372.181 134.063 371.947 134.063 371.679C134.063 371.456 134.018 371.244 133.929 371.043C133.84 371.266 133.795 371.501 133.795 371.746C133.795 371.969 133.84 372.181 133.929 372.382ZM135.771 381.155V380.15C135.101 379.983 134.465 379.648 133.963 379.213C133.427 379.681 132.791 380.05 132.088 380.217V381.155H135.771ZM136.239 381.155H150.704V380.217C148.829 379.748 147.456 378.074 147.456 376.032C146.117 375.898 144.945 375.128 144.242 374.056C143.572 375.094 142.434 375.831 141.094 375.965C141.094 375.965 141.094 375.976 141.094 375.998C141.094 378.007 139.722 379.681 137.847 380.15V381.155H136.239ZM139.922 372.784C140.257 373.253 140.827 373.554 141.429 373.554C142.065 373.554 142.601 373.253 142.936 372.784H139.922ZM143.036 370.708C142.702 370.172 142.132 369.804 141.429 369.804C140.76 369.804 140.19 370.172 139.855 370.708H143.036ZM144.275 369.402C144.978 368.331 146.117 367.594 147.456 367.46C147.456 365.418 148.829 363.744 150.704 363.275V362.27H152.78V363.275C153.449 363.442 154.086 363.777 154.588 364.246C155.124 363.744 155.76 363.375 156.463 363.208V362.27H137.847V363.208C139.722 363.677 141.094 365.384 141.094 367.393C141.094 367.393 141.094 367.404 141.094 367.427C142.434 367.561 143.606 368.297 144.275 369.402ZM159.376 367.059C159.376 366.021 158.539 365.183 157.501 365.183C156.798 365.183 156.162 365.585 155.86 366.188C155.972 366.59 156.028 367.003 156.028 367.427C156.028 367.449 156.028 367.46 156.028 367.46C156.999 367.561 157.869 367.996 158.539 368.599C159.041 368.264 159.376 367.695 159.376 367.059ZM150.637 368.632C151.307 367.963 152.211 367.494 153.215 367.393C153.215 366.969 153.271 366.567 153.382 366.188C153.048 365.619 152.445 365.25 151.742 365.25C150.704 365.25 149.867 366.088 149.867 367.125C149.867 367.728 150.168 368.297 150.637 368.632ZM147.121 369.871C146.485 369.871 145.949 370.172 145.581 370.641H148.628C148.293 370.172 147.724 369.871 147.121 369.871ZM145.514 372.717C145.849 373.253 146.452 373.621 147.121 373.621C147.791 373.621 148.36 373.253 148.695 372.717H145.514ZM149.867 376.367C149.867 377.405 150.737 378.242 151.742 378.242C152.478 378.242 153.115 377.84 153.416 377.237C153.304 376.835 153.237 376.411 153.215 375.965C152.278 375.864 151.407 375.429 150.737 374.793C150.202 375.161 149.867 375.73 149.867 376.367ZM154.621 372.382C154.711 372.159 154.755 371.925 154.755 371.679C154.755 371.456 154.722 371.244 154.655 371.043C154.566 371.266 154.521 371.501 154.521 371.746C154.521 371.969 154.554 372.181 154.621 372.382ZM156.496 381.155V380.15C155.793 379.983 155.191 379.648 154.688 379.179C154.153 379.681 153.516 380.016 152.813 380.217V381.155H156.496ZM156.965 381.155H171.43V380.184C169.555 379.715 168.148 378.041 168.148 376.032V375.998C166.809 375.864 165.671 375.128 164.967 374.023C164.264 375.094 163.126 375.831 161.82 375.965C161.82 377.974 160.447 379.681 158.572 380.15V381.155H156.965ZM160.648 372.784C160.983 373.253 161.552 373.554 162.155 373.554C162.791 373.554 163.327 373.253 163.662 372.784H160.648ZM163.762 370.708C163.427 370.172 162.825 369.804 162.155 369.804C161.485 369.804 160.883 370.172 160.581 370.708H163.762ZM165.001 369.369C165.704 368.331 166.842 367.594 168.148 367.46V367.427C168.148 365.418 169.555 363.744 171.43 363.275V362.237H173.506V363.275C174.175 363.442 174.811 363.777 175.314 364.212C175.816 363.744 176.485 363.375 177.189 363.208V362.237L158.572 362.27V363.208C160.414 363.677 161.82 365.351 161.82 367.393C163.159 367.527 164.331 368.297 165.001 369.369ZM180.102 367.025C180.102 365.987 179.264 365.15 178.227 365.15C177.49 365.15 176.887 365.585 176.552 366.154C176.686 366.556 176.753 366.98 176.753 367.427C176.753 367.427 176.753 367.438 176.753 367.46C177.724 367.561 178.595 367.963 179.265 368.599C179.767 368.264 180.102 367.695 180.102 367.025ZM171.363 368.599C172.032 367.929 172.936 367.494 173.941 367.393V367.36C173.941 366.958 173.997 366.567 174.108 366.188C173.773 365.619 173.171 365.217 172.468 365.217C171.43 365.217 170.593 366.054 170.593 367.092C170.593 367.728 170.894 368.264 171.363 368.599ZM167.813 369.871C167.211 369.871 166.642 370.172 166.307 370.641H169.354C168.985 370.172 168.45 369.871 167.813 369.871ZM166.24 372.717C166.575 373.253 167.144 373.621 167.847 373.621C168.517 373.621 169.086 373.253 169.421 372.717H166.24ZM170.593 376.367C170.593 377.405 171.43 378.242 172.468 378.242C173.204 378.242 173.84 377.806 174.142 377.237C174.008 376.835 173.941 376.411 173.941 375.965V375.931C172.97 375.831 172.099 375.429 171.43 374.793C170.927 375.128 170.593 375.697 170.593 376.367ZM175.347 372.349C175.436 372.148 175.481 371.925 175.481 371.679C175.481 371.434 175.447 371.21 175.381 371.009C175.291 371.233 175.247 371.467 175.247 371.713C175.247 371.936 175.28 372.148 175.347 372.349ZM177.222 381.155V380.117C176.519 379.949 175.916 379.614 175.381 379.179C174.878 379.648 174.242 380.016 173.506 380.184V381.155H177.222ZM177.323 381.155L192.189 381.121V380.184C190.314 379.715 188.907 378.041 188.907 376.032V375.998C187.568 375.864 186.396 375.094 185.727 374.023C185.024 375.061 183.885 375.797 182.579 375.931C182.579 375.954 182.579 375.965 182.579 375.965C182.579 377.974 181.173 379.648 179.331 380.117V381.155H177.323ZM181.374 372.751C181.742 373.219 182.278 373.521 182.881 373.521C183.517 373.521 184.053 373.219 184.421 372.751H181.374ZM184.454 370.675C184.119 370.139 183.55 369.771 182.881 369.771C182.177 369.771 181.608 370.139 181.273 370.675H184.454ZM185.727 369.369C186.396 368.297 187.535 367.561 188.874 367.427C188.874 365.418 190.247 363.71 192.122 363.241V362.237H194.198V363.241C194.901 363.409 195.504 363.744 196.006 364.212C196.542 363.71 197.178 363.375 197.881 363.175V362.237H179.265V363.208C181.14 363.677 182.512 365.351 182.512 367.36C182.512 367.36 182.512 367.371 182.512 367.393C183.885 367.527 185.024 368.264 185.727 369.369ZM200.794 367.025C200.794 365.987 199.957 365.15 198.919 365.15C198.216 365.15 197.579 365.552 197.278 366.154C197.39 366.556 197.457 366.98 197.479 367.427C197.479 367.427 197.468 367.427 197.446 367.427C198.417 367.527 199.287 367.963 199.957 368.565C200.459 368.23 200.794 367.661 200.794 367.025ZM192.055 368.599C192.725 367.929 193.629 367.46 194.633 367.36C194.633 366.936 194.689 366.545 194.8 366.188C194.499 365.585 193.863 365.217 193.16 365.217C192.122 365.217 191.285 366.054 191.285 367.092C191.285 367.695 191.586 368.264 192.055 368.599ZM188.539 369.838C187.903 369.838 187.367 370.139 187.032 370.608H190.046C189.711 370.139 189.142 369.838 188.539 369.838ZM186.932 372.684C187.267 373.219 187.87 373.588 188.539 373.588C189.209 373.588 189.812 373.219 190.146 372.684H186.932ZM191.285 376.333C191.285 377.371 192.122 378.208 193.16 378.208C193.863 378.208 194.499 377.806 194.8 377.204C194.689 376.802 194.633 376.378 194.633 375.931C193.662 375.831 192.791 375.396 192.122 374.793C191.62 375.128 191.285 375.697 191.285 376.333ZM196.006 372.349C196.095 372.126 196.14 371.891 196.14 371.646C196.14 371.422 196.106 371.21 196.039 371.009C195.95 371.233 195.905 371.467 195.905 371.713C195.905 371.936 195.939 372.148 196.006 372.349ZM197.881 381.121V380.117C197.211 379.949 196.575 379.614 196.073 379.146C195.537 379.648 194.901 380.016 194.198 380.184V381.121H197.881ZM198.35 381.121H212.814V380.184C210.939 379.715 209.566 378.007 209.566 375.998C208.193 375.831 207.055 375.094 206.352 373.989C205.682 375.061 204.544 375.797 203.205 375.931C203.205 377.974 201.832 379.648 199.957 380.117V381.121H198.35ZM202.033 372.751C202.367 373.219 202.937 373.521 203.539 373.521C204.176 373.521 204.711 373.219 205.046 372.751H202.033ZM205.147 370.675C204.812 370.139 204.243 369.771 203.539 369.771C202.87 369.771 202.301 370.139 201.966 370.675H205.147ZM206.419 369.335C207.089 368.297 208.227 367.561 209.566 367.427V367.393C209.566 365.384 210.939 363.71 212.814 363.241V362.237H214.89V363.241C215.56 363.409 216.196 363.744 216.698 364.179C217.234 363.71 217.87 363.342 218.573 363.175V362.237H199.957V363.175C201.832 363.643 203.205 365.351 203.205 367.36C204.544 367.494 205.716 368.264 206.419 369.335ZM221.486 366.992C221.486 365.954 220.649 365.117 219.611 365.117C218.908 365.117 218.272 365.552 217.97 366.154C218.082 366.556 218.138 366.969 218.138 367.393C218.138 367.416 218.138 367.427 218.138 367.427C219.109 367.527 219.979 367.929 220.649 368.565C221.151 368.23 221.486 367.661 221.486 366.992ZM212.747 368.565C213.417 367.896 214.321 367.46 215.325 367.36V367.326C215.325 366.925 215.381 366.534 215.493 366.154C215.158 365.585 214.555 365.183 213.852 365.183C212.814 365.183 211.977 366.021 211.977 367.059C211.977 367.695 212.278 368.23 212.747 368.565ZM209.231 369.838C208.595 369.838 208.06 370.139 207.725 370.608H210.738C210.403 370.139 209.834 369.838 209.231 369.838ZM207.624 372.684C207.959 373.219 208.562 373.588 209.231 373.588C209.901 373.588 210.504 373.219 210.805 372.684H207.624ZM212.01 376.333C212.01 377.371 212.848 378.208 213.852 378.208C214.589 378.208 215.225 377.806 215.526 377.204C215.415 376.802 215.348 376.378 215.325 375.931V375.898C214.388 375.831 213.517 375.396 212.848 374.759C212.345 375.094 212.01 375.664 212.01 376.333ZM216.732 372.349C216.821 372.126 216.865 371.891 216.865 371.646C216.865 371.422 216.832 371.21 216.765 371.009C216.676 371.21 216.631 371.445 216.631 371.713C216.631 371.936 216.665 372.148 216.732 372.349ZM218.171 375.998C218.171 376.4 218.115 376.791 218.004 377.17C218.305 377.739 218.941 378.141 219.645 378.141C220.682 378.141 221.52 377.304 221.52 376.266C221.52 375.63 221.218 375.094 220.749 374.759C220.08 375.429 219.176 375.864 218.171 375.965C218.171 375.987 218.171 375.998 218.171 375.998ZM222.758 372.751C223.093 373.186 223.662 373.487 224.265 373.487C224.901 373.487 225.437 373.186 225.772 372.717L222.758 372.751ZM225.872 370.675C225.537 370.139 224.935 369.804 224.265 369.804C223.595 369.804 223.026 370.139 222.691 370.675H225.872ZM227.111 369.369C227.814 368.297 228.953 367.594 230.258 367.46V367.427C230.258 365.418 231.665 363.71 233.54 363.241V362.237H235.616V363.241C236.285 363.409 236.922 363.744 237.424 364.212C237.926 363.71 238.596 363.375 239.299 363.175V362.237H220.682V363.208C222.557 363.677 223.93 365.351 223.93 367.36C223.93 367.382 223.93 367.393 223.93 367.393C225.27 367.527 226.441 368.297 227.111 369.369ZM242.212 367.025C242.212 365.987 241.375 365.15 240.337 365.15C239.6 365.15 238.997 365.552 238.663 366.154C238.797 366.556 238.864 366.98 238.864 367.427C239.835 367.527 240.705 367.963 241.375 368.599C241.877 368.264 242.212 367.661 242.212 367.025ZM233.473 368.599C234.142 367.929 235.046 367.494 236.051 367.393V367.36C236.051 366.958 236.107 366.567 236.218 366.188C235.884 365.619 235.281 365.217 234.578 365.217C233.54 365.217 232.703 366.054 232.703 367.092C232.703 367.695 233.004 368.264 233.473 368.599ZM229.957 369.838C229.321 369.838 228.785 370.139 228.417 370.608H231.464C231.096 370.139 230.56 369.838 229.957 369.838ZM228.35 372.717C228.685 373.253 229.254 373.588 229.957 373.588C230.627 373.588 231.196 373.253 231.531 372.717H228.35ZM232.703 376.367C232.703 377.371 233.54 378.242 234.578 378.208C235.314 378.208 235.951 377.806 236.252 377.204C236.118 376.802 236.051 376.389 236.051 375.965V375.931C235.08 375.831 234.209 375.429 233.573 374.793C233.038 375.128 232.703 375.697 232.703 376.367ZM237.457 372.349C237.547 372.126 237.591 371.891 237.591 371.646C237.591 371.422 237.558 371.21 237.491 371.009C237.401 371.233 237.357 371.467 237.357 371.713C237.357 371.936 237.39 372.148 237.457 372.349ZM239.332 380.117C238.629 379.949 238.026 379.614 237.524 379.179C236.988 379.648 236.352 380.016 235.616 380.184V381.121H239.332V380.117ZM239.801 381.155L254.266 381.121V380.184C252.39 379.715 250.984 378.041 250.984 375.998C249.645 375.864 248.507 375.094 247.803 374.023C247.1 375.061 245.962 375.797 244.656 375.931C244.656 375.931 244.656 375.943 244.656 375.965C244.656 377.974 243.283 379.648 241.408 380.117V381.121L239.801 381.155ZM243.484 372.784C243.819 373.253 244.388 373.554 244.991 373.554C245.627 373.554 246.163 373.253 246.498 372.784H243.484ZM246.598 370.708C246.263 370.172 245.66 369.804 244.991 369.804C244.321 369.804 243.752 370.172 243.417 370.708H246.598ZM247.837 369.402C248.54 368.331 249.678 367.594 250.984 367.46C250.984 365.451 252.39 363.744 254.266 363.275V362.27H256.341V363.275C257.011 363.442 257.647 363.777 258.149 364.246C258.685 363.744 259.321 363.409 260.025 363.208V362.27H241.408V363.241C243.283 363.677 244.656 365.384 244.656 367.393C244.656 367.393 244.656 367.404 244.656 367.427C245.995 367.561 247.167 368.297 247.837 369.402ZM262.937 367.059C262.937 366.021 262.1 365.183 261.062 365.183C260.359 365.183 259.723 365.585 259.422 366.188C259.533 366.59 259.589 367.014 259.589 367.46C260.56 367.561 261.431 367.996 262.1 368.599C262.603 368.264 262.937 367.695 262.937 367.059ZM254.199 368.632C254.868 367.963 255.772 367.494 256.777 367.393C256.777 366.969 256.832 366.567 256.944 366.188C256.609 365.619 256.007 365.25 255.303 365.25C254.266 365.25 253.428 366.088 253.428 367.125C253.428 367.728 253.73 368.297 254.199 368.632ZM250.683 369.871C250.047 369.871 249.511 370.172 249.143 370.641H252.19C251.855 370.172 251.286 369.871 250.683 369.871ZM249.076 372.717C249.411 373.253 249.98 373.621 250.683 373.621C251.353 373.621 251.922 373.253 252.257 372.717H249.076ZM253.428 376.367C253.428 377.405 254.266 378.242 255.303 378.242C256.04 378.242 256.676 377.84 256.978 377.237C256.844 376.835 256.777 376.411 256.777 375.965C255.806 375.864 254.969 375.429 254.299 374.826C253.763 375.161 253.428 375.73 253.428 376.367ZM258.183 372.382C258.272 372.159 258.317 371.925 258.317 371.679C258.317 371.456 258.283 371.244 258.216 371.043C258.127 371.266 258.082 371.501 258.082 371.746C258.082 371.969 258.116 372.181 258.183 372.382ZM274.991 381.155V380.184C273.116 379.715 271.71 378.041 271.71 376.032V375.998C270.371 375.864 269.232 375.128 268.529 374.023C267.826 375.094 266.688 375.831 265.382 375.965C265.382 377.974 264.009 379.681 262.134 380.15V381.155H260.058V380.15C259.355 379.983 258.752 379.648 258.25 379.179C257.714 379.681 257.078 380.016 256.341 380.217V381.155H274.991ZM264.243 372.784C264.578 373.253 265.114 373.554 265.75 373.554C266.353 373.554 266.922 373.253 267.257 372.784H264.243ZM267.324 370.708C267.022 370.172 266.42 369.804 265.75 369.804C265.08 369.804 264.478 370.172 264.143 370.708H267.324ZM268.596 369.402C269.299 368.331 270.438 367.594 271.743 367.46C271.743 365.418 273.116 363.744 274.991 363.275V362.27H277.067V363.275C277.77 363.442 278.373 363.777 278.875 364.246C279.411 363.744 280.047 363.375 280.784 363.208L280.75 362.27H262.134V363.208C264.009 363.677 265.415 365.384 265.415 367.393C266.754 367.561 267.893 368.297 268.596 369.402ZM283.697 367.025C283.697 366.021 282.86 365.183 281.822 365.183C281.085 365.183 280.449 365.585 280.148 366.188C280.281 366.59 280.348 367.003 280.348 367.427C280.348 367.449 280.348 367.46 280.348 367.46C281.319 367.561 282.156 367.963 282.826 368.599C283.362 368.264 283.697 367.695 283.697 367.025ZM274.924 368.632C275.627 367.963 276.498 367.494 277.502 367.393C277.502 366.969 277.558 366.567 277.67 366.188C277.368 365.619 276.732 365.25 276.029 365.25C274.991 365.25 274.154 366.088 274.154 367.125C274.154 367.728 274.456 368.264 274.924 368.632ZM271.409 369.871C270.772 369.871 270.237 370.172 269.902 370.641H272.915C272.58 370.172 272.045 369.871 271.409 369.871ZM269.801 372.717C270.136 373.253 270.739 373.621 271.409 373.621C272.078 373.621 272.681 373.253 273.016 372.717H269.801ZM274.154 376.367C274.154 377.405 274.991 378.242 276.029 378.242C276.732 378.242 277.368 377.84 277.703 377.237C277.569 376.835 277.502 376.411 277.502 375.965C276.531 375.864 275.661 375.429 274.991 374.793C274.489 375.128 274.154 375.73 274.154 376.367ZM278.909 372.382C278.998 372.159 279.043 371.925 279.043 371.679C279.043 371.456 278.998 371.244 278.909 371.043C278.819 371.266 278.775 371.501 278.775 371.746C278.775 371.969 278.819 372.181 278.909 372.382ZM295.683 381.155V380.184C293.808 379.715 292.436 378.041 292.436 376.032V375.998C291.096 375.864 289.924 375.128 289.255 374.023C288.552 375.094 287.413 375.831 286.074 375.965C286.096 375.965 286.107 375.965 286.107 375.965C286.107 377.974 284.701 379.681 282.826 380.15V381.155H280.75V380.15C280.081 379.983 279.444 379.648 278.942 379.179C278.406 379.681 277.77 380.016 277.067 380.217V381.155H295.683ZM284.902 372.784C285.237 373.253 285.806 373.554 286.409 373.554C287.045 373.554 287.581 373.253 287.915 372.784H284.902ZM288.016 370.708C287.681 370.172 287.112 369.804 286.409 369.804C285.739 369.804 285.17 370.172 284.835 370.708H288.016ZM289.255 369.402C289.958 368.331 291.096 367.594 292.436 367.46C292.402 365.418 293.808 363.744 295.683 363.275V362.27H297.759V363.275C298.429 363.442 299.065 363.777 299.567 364.212C300.103 363.744 300.739 363.375 301.442 363.208V362.27H282.826V363.208C284.701 363.677 286.074 365.384 286.074 367.393C287.413 367.527 288.585 368.297 289.255 369.402ZM304.355 367.025C304.355 365.987 303.518 365.15 302.48 365.15C301.777 365.15 301.141 365.585 300.84 366.188C300.951 366.59 301.007 367.003 301.007 367.427C301.007 367.449 301.007 367.46 301.007 367.46C301.978 367.561 302.849 367.963 303.518 368.599C304.021 368.264 304.355 367.695 304.355 367.025ZM295.616 368.632C296.286 367.963 297.19 367.494 298.195 367.393C298.195 366.969 298.25 366.567 298.362 366.188C298.027 365.619 297.425 365.217 296.721 365.217C295.683 365.217 294.846 366.087 294.846 367.092C294.846 367.728 295.148 368.264 295.616 368.632ZM292.101 369.871C291.465 369.871 290.929 370.172 290.561 370.641H293.608C293.273 370.172 292.703 369.871 292.101 369.871ZM290.494 372.717C290.828 373.253 291.398 373.621 292.101 373.621C292.77 373.621 293.34 373.253 293.674 372.717H290.494ZM294.846 376.367C294.846 377.405 295.683 378.242 296.721 378.242C297.458 378.242 298.094 377.84 298.396 377.237C298.262 376.835 298.195 376.411 298.195 375.965C297.224 375.864 296.387 375.429 295.717 374.793C295.181 375.128 294.846 375.73 294.846 376.367ZM299.601 372.382C299.69 372.159 299.735 371.925 299.735 371.679C299.735 371.456 299.701 371.244 299.634 371.043C299.545 371.266 299.5 371.501 299.5 371.746C299.5 371.969 299.534 372.181 299.601 372.382ZM301.476 380.15C300.773 379.983 300.17 379.648 299.668 379.179C299.132 379.681 298.496 380.016 297.759 380.217L297.793 381.155H301.476V380.15ZM301.945 381.155H316.409V380.184C314.534 379.748 313.161 378.041 313.128 376.032V375.998C311.789 375.864 310.65 375.128 309.947 374.023C309.244 375.094 308.105 375.831 306.8 375.965C306.8 377.974 305.427 379.681 303.552 380.15V381.155H301.945ZM305.628 372.784C305.963 373.253 306.532 373.554 307.134 373.554C307.771 373.554 308.306 373.253 308.641 372.784H305.628ZM308.742 370.708C308.407 370.172 307.804 369.804 307.134 369.804C306.465 369.804 305.862 370.172 305.561 370.708H308.742ZM105.703 370.005C105.101 370.005 104.531 370.306 104.197 370.775H107.243C106.875 370.306 106.339 370.005 105.703 370.005ZM104.13 372.851C104.464 373.387 105.034 373.722 105.737 373.722C106.406 373.722 106.976 373.387 107.31 372.851H104.13ZM108.482 376.501C108.482 377.539 109.319 378.376 110.357 378.376C111.094 378.376 111.73 377.94 112.031 377.338C111.898 376.958 111.831 376.545 111.831 376.099V376.065C110.86 375.965 109.989 375.563 109.319 374.927C108.817 375.262 108.482 375.831 108.482 376.501ZM114.677 376.166C114.677 376.568 114.621 376.958 114.509 377.338C114.811 377.907 115.447 378.309 116.15 378.309C117.154 378.309 118.025 377.472 118.025 376.434C118.025 375.797 117.69 375.262 117.255 374.927C116.552 375.597 115.648 376.032 114.677 376.132C114.677 376.132 114.677 376.143 114.677 376.166ZM135.369 376.132C135.369 376.556 135.313 376.958 135.201 377.338C135.536 377.907 136.139 378.275 136.842 378.275C137.88 378.275 138.717 377.438 138.717 376.4C138.717 375.797 138.416 375.228 137.947 374.893C137.277 375.563 136.373 376.032 135.369 376.132ZM156.095 376.132C156.095 376.534 156.039 376.925 155.927 377.304C156.228 377.873 156.865 378.275 157.568 378.275C158.572 378.275 159.443 377.438 159.443 376.4C159.443 375.764 159.108 375.228 158.639 374.893C157.97 375.563 157.066 375.998 156.095 376.099C156.095 376.121 156.095 376.132 156.095 376.132ZM176.787 376.099C176.787 376.523 176.731 376.925 176.619 377.304C176.954 377.873 177.557 378.275 178.26 378.275C179.298 378.275 180.135 377.438 180.135 376.4C180.135 375.764 179.834 375.228 179.365 374.86C178.695 375.53 177.791 375.998 176.787 376.099ZM197.513 376.099C197.513 376.523 197.457 376.914 197.345 377.271C197.646 377.873 198.283 378.242 198.986 378.242C199.99 378.242 200.861 377.405 200.861 376.367C200.861 375.764 200.526 375.195 200.057 374.86C199.388 375.53 198.484 375.965 197.513 376.065C197.513 376.088 197.513 376.099 197.513 376.099ZM220.18 381.222H218.64V380.184C217.97 380.016 217.334 379.681 216.832 379.246C216.296 379.715 215.66 380.083 214.957 380.251V381.222H220.18ZM233.573 381.188V380.251C231.698 379.782 230.325 378.108 230.325 376.099V376.065C228.986 375.931 227.814 375.161 227.111 374.09C226.441 375.128 225.303 375.864 223.964 375.998C223.964 376.021 223.964 376.032 223.964 376.032C223.997 378.041 222.591 379.715 220.716 380.184V381.222L233.573 381.188ZM238.93 376.065C238.93 376.467 238.875 376.858 238.763 377.237C239.064 377.806 239.701 378.208 240.404 378.208C241.442 378.208 242.279 377.371 242.279 376.333C242.279 375.697 241.944 375.161 241.509 374.826C240.805 375.496 239.935 375.931 238.93 376.032C238.93 376.032 238.93 376.043 238.93 376.065ZM259.623 376.032C259.623 376.456 259.567 376.858 259.455 377.237C259.79 377.806 260.393 378.175 261.096 378.175C262.134 378.175 262.971 377.338 262.971 376.3C262.971 375.697 262.67 375.128 262.201 374.793C261.531 375.463 260.627 375.931 259.623 376.032ZM280.348 376.032C280.348 376.434 280.293 376.824 280.181 377.204C280.482 377.773 281.119 378.175 281.822 378.175C282.86 378.175 283.697 377.338 283.697 376.3C283.697 375.664 283.362 375.128 282.927 374.793C282.223 375.463 281.353 375.898 280.348 375.998C280.348 376.021 280.348 376.032 280.348 376.032ZM301.041 375.998C301.041 376.422 300.985 376.824 300.873 377.204C301.208 377.773 301.811 378.175 302.514 378.175C303.552 378.175 304.389 377.304 304.389 376.3C304.389 375.664 304.088 375.128 303.619 374.759C302.949 375.429 302.045 375.898 301.041 375.998ZM318.485 381.121H322.202V380.117C321.499 379.949 320.896 379.614 320.394 379.146C319.858 379.648 319.222 379.983 318.485 380.184V381.121ZM323.24 378.141C324.244 378.141 325.115 377.304 325.115 376.266C325.115 375.63 324.78 375.094 324.345 374.759C323.641 375.429 322.737 375.864 321.766 375.965C321.766 375.965 321.766 375.976 321.766 375.998C321.766 376.4 321.711 376.791 321.599 377.17C321.9 377.739 322.536 378.141 323.24 378.141ZM326.353 372.717C326.688 373.186 327.224 373.487 327.86 373.487C328.463 373.487 329.032 373.186 329.367 372.717H326.353ZM329.467 370.641C329.133 370.105 328.53 369.737 327.86 369.737C327.191 369.737 326.588 370.105 326.253 370.641H329.467ZM76.6069 367.159C76.6069 366.121 75.7698 365.284 74.7319 365.284C74.0287 365.284 73.3926 365.686 73.0912 366.288C73.2028 366.69 73.2698 367.114 73.2921 367.561C73.2698 367.561 73.2586 367.561 73.2586 367.561C74.2296 367.661 75.1002 368.096 75.7698 368.733C76.2721 368.398 76.6069 367.795 76.6069 367.159ZM70.0108 362.371V363.375C70.6805 363.543 71.3166 363.878 71.8189 364.346C72.3546 363.844 72.9908 363.509 73.6939 363.308V362.371H70.0108ZM71.8524 372.483C71.9417 372.259 71.9863 372.025 71.9863 371.78C71.9863 371.556 71.9528 371.344 71.8858 371.143C71.7966 371.367 71.7519 371.601 71.7519 371.847C71.7519 372.07 71.7854 372.282 71.8524 372.483ZM70.0443 381.255H74.1961H73.7274V380.251C73.0243 380.083 72.4216 379.748 71.9193 379.28C71.3836 379.782 70.7474 380.15 70.0443 380.318V381.255ZM75.8033 381.255H88.6606L88.6271 380.284C86.7856 379.815 85.3793 378.141 85.3793 376.132V376.099C84.04 375.965 82.8681 375.228 82.1985 374.123C81.4953 375.195 80.3569 375.898 79.0511 376.032C79.0511 376.054 79.0511 376.065 79.0511 376.065C79.0511 378.074 77.6449 379.782 75.8033 380.251V381.255ZM77.8792 372.851C78.2141 373.32 78.7498 373.621 79.3859 373.621C79.9886 373.621 80.5578 373.32 80.8927 372.851H77.8792ZM80.9596 370.775C80.6583 370.239 80.0556 369.871 79.3859 369.871C78.7163 369.871 78.1136 370.239 77.7788 370.775H80.9596ZM88.5602 368.699C89.2633 368.029 90.1339 367.594 91.1383 367.494V367.46C91.1383 367.036 91.1941 366.646 91.3057 366.288C91.0044 365.686 90.3682 365.317 89.6651 365.317C88.6271 365.317 87.7901 366.154 87.7901 367.192C87.7901 367.795 88.0914 368.364 88.5602 368.699ZM85.0445 369.938C84.4083 369.938 83.8726 370.239 83.5378 370.708H86.5512C86.2164 370.239 85.6807 369.938 85.0445 369.938ZM83.4373 372.784C83.7722 373.32 84.3748 373.688 85.0445 373.688C85.7141 373.688 86.3168 373.32 86.6517 372.784H83.4373ZM87.7901 376.467C87.7901 377.472 88.6271 378.309 89.6651 378.309C90.3682 378.309 91.0044 377.907 91.3392 377.304C91.2053 376.902 91.1383 376.489 91.1383 376.065V376.032C90.1673 375.931 89.2968 375.53 88.6271 374.893C88.1249 375.228 87.7901 375.797 87.7901 376.467ZM93.9509 376.099C93.9509 376.523 93.8951 376.925 93.7835 377.304C94.1183 377.873 94.721 378.242 95.4241 378.242C96.4621 378.242 97.2991 377.405 97.2991 376.367C97.2991 375.764 96.9978 375.195 96.529 374.86C95.8594 375.53 94.9554 375.998 93.9509 376.099ZM400.283 374.391C399.245 374.391 398.408 375.228 398.408 376.266C398.408 377.271 399.245 378.141 400.283 378.108C401.321 378.108 402.158 377.271 402.158 376.266C402.158 375.228 401.321 374.391 400.283 374.391ZM404.937 373.487C405.975 373.487 406.812 372.65 406.812 371.612C406.812 370.574 405.942 369.737 404.937 369.737C403.899 369.737 403.062 370.574 403.062 371.612C403.062 372.65 403.899 373.487 404.937 373.487ZM416.355 373.487C417.393 373.487 418.23 372.65 418.23 371.612C418.23 370.574 417.393 369.737 416.355 369.737C415.317 369.737 414.48 370.574 414.48 371.612C414.48 372.65 415.317 373.487 416.355 373.487ZM423.754 371.612C423.754 372.65 424.591 373.487 425.629 373.487C426.667 373.487 427.504 372.65 427.504 371.612C427.504 370.574 426.667 369.737 425.629 369.737C424.591 369.737 423.754 370.574 423.754 371.612ZM422.884 376.233C422.884 375.195 422.047 374.358 421.009 374.358C419.971 374.358 419.134 375.195 419.134 376.233C419.134 377.271 419.971 378.108 421.009 378.108C422.047 378.108 422.884 377.271 422.884 376.233ZM421.009 365.083C419.971 365.083 419.134 365.954 419.134 366.958C419.134 367.996 419.971 368.833 421.009 368.833C422.047 368.833 422.884 367.996 422.884 366.958C422.884 365.92 422.013 365.083 421.009 365.083ZM419.937 362.137H401.321V363.141C403.196 363.61 404.602 365.317 404.602 367.326C404.602 367.326 404.591 367.326 404.569 367.326C406.41 367.527 407.884 368.833 408.319 370.574H412.973C413.408 368.833 414.881 367.527 416.69 367.326C416.69 365.284 418.096 363.61 419.937 363.141V362.137ZM-31.5753 371.847C-31.5753 370.809 -32.4124 369.971 -33.4504 369.971C-34.4883 369.971 -35.3254 370.809 -35.3254 371.847C-35.3254 372.884 -34.4883 373.722 -33.4504 373.722C-32.4124 373.722 -31.5753 372.884 -31.5753 371.847ZM-30.7048 367.192C-30.7048 368.23 -29.8677 369.067 -28.8298 369.067C-27.7918 369.067 -26.9547 368.23 -26.9547 367.192C-26.9547 366.154 -27.7918 365.317 -28.8298 365.317C-29.8677 365.317 -30.7048 366.154 -30.7048 367.192ZM-26.9547 376.467C-26.9547 375.429 -27.7918 374.592 -28.8298 374.592C-29.8677 374.592 -30.7048 375.429 -30.7048 376.467C-30.7048 377.505 -29.8677 378.342 -28.8298 378.342C-27.7918 378.342 -26.9547 377.505 -26.9547 376.467ZM-22.3341 371.847C-22.3341 370.809 -23.1712 369.971 -24.2092 369.971C-25.2136 369.971 -26.0507 370.809 -26.0507 371.847C-26.0507 372.884 -25.2136 373.722 -24.1757 373.722C-23.1712 373.688 -22.3341 372.851 -22.3341 371.847ZM-10.8831 371.813C-10.8831 370.775 -11.7202 369.938 -12.7581 369.938C-13.7961 369.938 -14.6331 370.809 -14.6331 371.813C-14.6331 372.851 -13.7961 373.688 -12.7581 373.688C-11.7202 373.688 -10.8831 372.851 -10.8831 371.813ZM-6.22902 376.467C-6.22902 375.429 -7.06609 374.592 -8.10405 374.592C-9.14201 374.592 -9.97907 375.429 -9.97907 376.467C-9.97907 377.505 -9.14201 378.342 -8.10405 378.342C-7.06609 378.342 -6.22902 377.505 -6.22902 376.467ZM49.7204 367.494C49.7204 365.485 51.0932 363.777 52.9682 363.308V362.304H55.0441V363.308C56.9191 363.777 58.2919 365.485 58.2919 367.494C59.6647 367.628 60.8031 368.398 61.5062 369.469C62.1759 368.431 63.3143 367.695 64.6536 367.561V367.527C64.6536 365.518 66.0264 363.844 67.9014 363.375V362.371H55.6803V362.304L18.1128 362.337L-27.7918 362.371V363.375C-25.9168 363.844 -24.544 365.518 -24.544 367.527C-24.544 367.55 -24.544 367.561 -24.544 367.561C-22.7024 367.728 -21.2292 369.067 -20.7939 370.775H-16.1399C-15.7046 369.067 -14.2314 367.728 -12.4233 367.561V367.527C-12.4233 365.518 -11.017 363.811 -9.17549 363.342V362.337H-7.06609V363.342C-5.22454 363.811 -3.81827 365.518 -3.81827 367.527C-2.01021 367.728 -0.53698 369.034 -0.101707 370.775H4.55237C4.98764 369.034 6.46088 367.728 8.30242 367.527C8.30242 365.485 9.67521 363.811 11.5502 363.342V362.337H13.6262V363.342C15.5012 363.811 16.874 365.485 16.874 367.494C16.874 367.516 16.874 367.527 16.874 367.527C18.7155 367.728 20.1887 369.034 20.624 370.775H25.2781C25.7134 369.034 27.1866 367.695 28.9947 367.527V367.494C28.9947 365.485 30.4009 363.811 32.2425 363.342V362.304H34.3519V363.342C36.1934 363.811 37.5997 365.485 37.5997 367.494C37.5997 367.494 37.5997 367.505 37.5997 367.527C39.4077 367.695 40.881 369 41.3162 370.742H45.9703C46.4056 369 47.8788 367.695 49.7204 367.494ZM-1.60842 371.813C-1.60842 370.775 -2.44549 369.938 -3.48345 369.938C-4.52141 369.938 -5.35847 370.775 -5.35847 371.813C-5.35847 372.851 -4.52141 373.688 -3.48345 373.688C-2.44549 373.688 -1.60842 372.851 -1.60842 371.813ZM9.84262 371.813C9.84262 370.775 9.00556 369.938 7.9676 369.938C6.92964 369.938 6.09257 370.775 6.09257 371.813C6.09257 372.851 6.92964 373.688 7.9676 373.688C9.00556 373.688 9.84262 372.851 9.84262 371.813ZM14.4632 376.434C14.4632 375.396 13.6261 374.559 12.5882 374.559C11.5502 374.559 10.7132 375.396 10.7132 376.434C10.7132 377.472 11.5502 378.309 12.5882 378.309C13.6261 378.309 14.4632 377.472 14.4632 376.434ZM12.5882 369.067C13.6261 369.034 14.4632 368.197 14.4632 367.159C14.4632 366.154 13.6261 365.317 12.5882 365.317C11.5502 365.317 10.7132 366.154 10.7132 367.192C10.7132 368.23 11.5502 369.067 12.5882 369.067ZM19.0838 371.813C19.0838 370.775 18.2467 369.938 17.2088 369.938C16.2043 369.938 15.3672 370.775 15.3672 371.813C15.3672 372.851 16.2043 373.688 17.2423 373.688C18.2467 373.688 19.0838 372.851 19.0838 371.813ZM30.5349 371.813C30.5349 370.775 29.6978 369.938 28.6598 369.938C27.6219 369.938 26.7848 370.775 26.7848 371.813C26.7848 372.851 27.6219 373.688 28.6598 373.688C29.6978 373.655 30.5349 372.818 30.5349 371.813ZM35.1889 376.434C35.1889 375.396 34.3519 374.559 33.3139 374.559C32.276 374.559 31.4389 375.396 31.4389 376.434C31.4389 377.472 32.276 378.309 33.3139 378.309C34.3519 378.309 35.1889 377.472 35.1889 376.434ZM33.3139 369.034C34.3184 369.034 35.1889 368.197 35.1889 367.159C35.1889 366.121 34.3184 365.284 33.2804 365.284C32.2759 365.284 31.4389 366.121 31.4389 367.159C31.4389 368.197 32.276 369.034 33.3139 369.034ZM39.8095 371.78C39.8095 370.742 38.9725 369.905 37.9345 369.905C36.8966 369.938 36.0595 370.775 36.0595 371.78C36.0595 372.817 36.8966 373.655 37.9345 373.655C38.9725 373.655 39.8095 372.817 39.8095 371.78ZM-8.10405 369.067C-7.09957 369.067 -6.22902 368.23 -6.22902 367.192C-6.22902 366.154 -7.09957 365.317 -8.13753 365.317C-9.142 365.317 -9.97907 366.154 -9.97907 367.192C-9.97907 368.23 -9.14201 369.067 -8.10405 369.067ZM64.3188 369.971C63.6826 369.971 63.1469 370.273 62.8121 370.742H65.8255C65.4907 370.273 64.9215 369.971 64.3188 369.971ZM58.6267 369.905C57.9571 369.905 57.3879 370.273 57.0531 370.809H60.2339C59.8991 370.273 59.3299 369.905 58.6267 369.905ZM51.2606 371.78C51.2606 370.742 50.4235 369.905 49.3855 369.905C48.3476 369.905 47.5105 370.742 47.5105 371.78C47.5105 372.817 48.3476 373.655 49.3855 373.655C50.4235 373.655 51.2606 372.817 51.2606 371.78ZM52.1311 367.159C52.1311 368.197 52.9682 369.034 54.0061 369.034C55.0441 369.034 55.8812 368.197 55.8812 367.159C55.8812 366.121 55.0441 365.284 54.0061 365.284C52.9682 365.284 52.1311 366.121 52.1311 367.159ZM55.8812 376.4C55.8812 375.362 55.0441 374.525 54.0061 374.525C52.9682 374.559 52.1311 375.396 52.1311 376.434C52.1311 377.438 52.9682 378.275 54.0061 378.275C55.0441 378.275 55.8812 377.438 55.8812 376.4ZM60.1669 372.884H57.12C57.4883 373.353 58.0241 373.655 58.6602 373.655C59.2629 373.655 59.7986 373.353 60.1669 372.884ZM65.9259 372.818H62.7116C63.0464 373.353 63.6491 373.722 64.3188 373.722C64.9884 373.722 65.5911 373.353 65.9259 372.818ZM68.9394 378.342C69.676 378.342 70.3122 377.94 70.6135 377.338C70.4796 376.936 70.4126 376.512 70.4126 376.065C69.4416 375.965 68.6046 375.53 67.9349 374.893C67.3992 375.228 67.0644 375.831 67.0644 376.467C67.0644 377.505 67.9014 378.342 68.9394 378.342ZM73.2586 376.132C73.2586 376.534 73.2028 376.925 73.0912 377.304C73.3926 377.873 74.0287 378.275 74.7319 378.275C75.7698 378.275 76.6069 377.438 76.6069 376.4C76.6069 375.764 76.3055 375.228 75.8368 374.893C75.1337 375.563 74.2631 375.998 73.2586 376.099C73.2586 376.121 73.2586 376.132 73.2586 376.132Z" fill="#4F4F4F"/>
<path d="M232.447 112.116H158.01V117.045H232.447V112.116Z" fill="#4F1F2C"/>
<path d="M232.447 120.875H158.01V142.984H232.447V120.875Z" fill="#4F1F2C"/>
<path d="M174.865 138.668H166.37V123.816H174.865V138.668ZM191.345 123.816H182.852V138.668H191.345V123.816ZM207.826 123.816H199.332V138.668H207.826V123.816ZM224.306 123.816H215.812V138.668H224.306V123.816Z" fill="white"/>
<path d="M246.424 165.544H144.03V170.474H246.424V165.544Z" fill="#4F1F2C"/>
<path d="M246.424 174.303H144.03V196.411H246.424V174.303Z" fill="#4F1F2C"/>
<path d="M170.21 191.442H159.784V176.59H170.21V191.442ZM190.438 176.59H180.012V191.442H190.438V176.59ZM210.667 176.59H200.241V191.442H210.667V176.59ZM230.895 176.59H220.469V191.442H230.895V176.59Z" fill="white"/>
<path d="M257.159 218.971H133.297V223.902H257.159V218.971Z" fill="#4F1F2C"/>
<path d="M257.159 227.73H133.297V253.076H257.159V227.73Z" fill="#4F1F2C"/>
<path d="M167.903 247.829H156.521V232.977H167.903V247.829ZM189.988 232.977H178.605V247.829H189.988V232.977ZM212.074 232.977H200.691V247.829H212.074V232.977ZM234.158 232.977H222.775V247.829H234.158V232.977Z" fill="white"/>
<path d="M264.52 275.637H125.937V280.567H264.52V275.637Z" fill="#4F1F2C"/>
<path d="M264.52 284.396H125.937V309.742H264.52V284.396Z" fill="#4F1F2C"/>
<path d="M159.784 305.405H145.032V289.643H159.784V305.405ZM188.404 289.643H173.653V305.405H188.404V289.643ZM217.025 289.643H202.274V305.405H217.025V289.643ZM245.647 289.643H230.896V305.405H245.647V289.643Z" fill="white"/>
<path d="M235.455 117.045H155.001V120.875H235.455V117.045Z" fill="#6C6C6C"/>
<path d="M249.434 170.474H141.023V174.303H249.434V170.474Z" fill="#6C6C6C"/>
<path d="M260.168 223.902H130.289V227.73H260.168V223.902Z" fill="#6C6C6C"/>
<path d="M267.529 280.567H122.928V284.396H267.529V280.567Z" fill="#6C6C6C"/>
<path d="M195.227 340.311H125.713V369.273H264.742V340.311H195.227Z" fill="#4F1F2C"/>
<path d="M203.315 348.515H187.144V372.053H203.315V348.515Z" fill="#20180F"/>
<path d="M120.856 333.317L125.713 340.311H195.227V340.31V340.311H264.742L269.598 333.317H120.856Z" fill="#20180F"/>
<path d="M189.232 73.9758C189.232 73.9758 168.31 101.819 134.896 99.9159C137.815 103.317 142.072 105.274 146.553 105.274H195.228H243.903C248.384 105.274 252.641 103.317 255.56 99.9159C222.146 101.819 201.224 73.9758 201.224 73.9758H189.232Z" fill="#6C6C6C"/>
<path d="M175.196 105.275C184.899 105.275 195.23 105.275 195.23 105.275H215.263C203.99 98.3554 196.334 73.9758 196.334 73.9758H194.126C194.126 73.9758 186.467 98.3538 175.196 105.275Z" fill="#6C6C6C"/>
<path d="M155.001 105.275L158.01 112.116H232.447L235.456 105.275H155.001Z" fill="#20180F"/>
<path d="M141.023 158.703L144.031 165.544H246.425L249.434 158.703H141.023Z" fill="#20180F"/>
<path d="M130.289 212.131L133.297 218.971H257.16L260.168 212.131H130.289Z" fill="#20180F"/>
<path d="M122.928 268.796L125.937 275.637H264.521L267.529 268.796H122.928Z" fill="#20180F"/>
<path d="M269.598 325.463H120.856V333.317H269.598V325.463Z" fill="#20180F"/>
<path d="M242.817 142.982H147.64C147.64 142.982 138.108 151.854 122.264 154.674C125.472 157.28 129.48 158.703 133.614 158.703H256.843C260.977 158.703 264.985 157.28 268.193 154.674C252.349 151.856 242.817 142.982 242.817 142.982Z" fill="#6C6C6C"/>
<path d="M162.534 158.703H227.923C221.563 152.646 214.557 142.984 214.557 142.984H175.9C175.9 142.984 168.894 152.646 162.534 158.703Z" fill="#6C6C6C"/>
<path d="M156.154 107.896H195.228C195.228 107.896 221.929 107.896 234.302 107.896L235.455 105.275H155.001L156.154 107.896Z" fill="#20180F"/>
<path d="M142.176 161.324H248.282L249.434 158.703H141.023L142.176 161.324Z" fill="#20180F"/>
<path d="M256.794 196.411H133.661C133.661 196.411 124.128 205.284 108.284 208.103L110.536 209.483C113.365 211.215 116.619 212.132 119.937 212.132H270.518C273.836 212.132 277.09 211.215 279.919 209.483L282.171 208.103C266.328 205.284 256.794 196.411 256.794 196.411Z" fill="#6C6C6C"/>
<path d="M156.299 212.131H234.158C226.586 206.073 220.171 196.411 220.171 196.411H170.286C170.286 196.411 163.871 206.073 156.299 212.131Z" fill="#6C6C6C"/>
<path d="M267.528 253.076H122.928C122.928 253.076 113.395 261.949 97.5508 264.768L99.8025 266.148C102.632 267.88 105.886 268.797 109.204 268.797H281.252C284.57 268.797 287.824 267.881 290.653 266.148L292.905 264.768C277.063 261.949 267.528 253.076 267.528 253.076Z" fill="#6C6C6C"/>
<path d="M147.64 268.788H242.816C233.56 262.73 228.955 253.068 228.955 253.068H159.882C159.882 253.068 156.896 262.73 147.64 268.788Z" fill="#6C6C6C"/>
<path d="M267.529 268.796H122.928L124.067 271.386H266.391L267.529 268.796Z" fill="#20180F"/>
<path d="M281.08 309.742H109.377C109.377 309.742 99.8441 318.614 84 321.434L86.2517 322.813C89.0812 324.545 92.3348 325.463 95.6532 325.463H294.805C298.123 325.463 301.377 324.545 304.207 322.813L306.458 321.434C290.614 318.614 281.08 309.742 281.08 309.742Z" fill="#6C6C6C"/>
<path d="M144.03 325.461H246.424C236.466 319.404 231.267 309.74 231.267 309.74H159.188C159.188 309.74 153.989 319.404 144.03 325.461Z" fill="#6C6C6C"/>
<path d="M269.598 325.463H120.856V328.053H269.598V325.463Z" fill="#20180F"/>
<path d="M264.742 343.503H125.937V345.122H264.742V343.503Z" fill="#20180F"/>
<path d="M161.448 344.313H159.829V369.273H161.448V344.313Z" fill="#20180F"/>
<path d="M230.851 344.313H229.232V369.273H230.851V344.313Z" fill="#20180F"/>
<path d="M243.626 143.793H146.831V134.262H243.626V143.793ZM148.45 142.174H242.007V135.881H148.45V142.174Z" fill="#20180F"/>
<path d="M257.605 197.219H132.854V187.69H257.605V197.219ZM134.471 195.6H255.985V189.308H134.471V195.6Z" fill="#20180F"/>
<path d="M268.339 253.886H122.119V244.355H268.339V253.886ZM123.738 252.267H266.72V245.973H123.738V252.267Z" fill="#20180F"/>
<path d="M133.661 188.449C132.584 188.449 131.71 187.573 131.71 186.498C131.71 185.423 132.584 184.548 133.661 184.548C134.737 184.548 135.611 185.423 135.611 186.498C135.611 187.573 134.737 188.449 133.661 188.449ZM133.661 186.166C133.478 186.166 133.329 186.315 133.329 186.498C133.329 186.866 133.992 186.866 133.992 186.498C133.992 186.315 133.845 186.166 133.661 186.166Z" fill="#20180F"/>
<path d="M122.928 245.114C121.852 245.114 120.978 244.24 120.978 243.163C120.978 242.087 121.853 241.213 122.928 241.213C124.003 241.213 124.879 242.087 124.879 243.163C124.877 244.24 124.003 245.114 122.928 245.114ZM122.928 242.832C122.745 242.832 122.596 242.98 122.596 243.163C122.596 243.529 123.26 243.531 123.26 243.163C123.258 242.98 123.109 242.832 122.928 242.832Z" fill="#20180F"/>
<path d="M109.376 301.779C108.301 301.779 107.426 300.905 107.426 299.828C107.426 298.752 108.301 297.878 109.376 297.878C110.453 297.878 111.327 298.754 111.327 299.828C111.327 300.905 110.451 301.779 109.376 301.779ZM109.376 299.497C109.193 299.497 109.045 299.646 109.045 299.828C109.045 300.196 109.708 300.196 109.708 299.828C109.708 299.646 109.559 299.497 109.376 299.497Z" fill="#20180F"/>
<path d="M281.079 301.779C280.005 301.779 279.129 300.905 279.129 299.828C279.129 298.752 280.005 297.878 281.079 297.878C282.154 297.878 283.03 298.754 283.03 299.828C283.03 300.905 282.154 301.779 281.079 301.779ZM281.079 299.497C280.897 299.497 280.748 299.646 280.748 299.828C280.748 300.196 281.411 300.196 281.411 299.828C281.411 299.646 281.262 299.497 281.079 299.497Z" fill="#20180F"/>
<path d="M147.64 135.02C146.564 135.02 145.689 134.145 145.689 133.069C145.689 131.993 146.565 131.118 147.64 131.118C148.716 131.118 149.591 131.993 149.591 133.069C149.591 134.145 148.716 135.02 147.64 135.02ZM147.64 132.737C147.457 132.737 147.308 132.886 147.308 133.069C147.308 133.435 147.972 133.435 147.972 133.069C147.972 132.886 147.823 132.737 147.64 132.737Z" fill="#20180F"/>
<path d="M242.816 135.02C241.741 135.02 240.865 134.145 240.865 133.069C240.865 131.993 241.741 131.118 242.816 131.118C243.891 131.118 244.766 131.993 244.766 133.069C244.766 134.145 243.891 135.02 242.816 135.02ZM242.816 132.737C242.633 132.737 242.484 132.886 242.484 133.069C242.484 133.435 243.148 133.435 243.148 133.069C243.148 132.886 242.999 132.737 242.816 132.737Z" fill="#20180F"/>
<path d="M256.795 188.449C255.72 188.449 254.845 187.573 254.845 186.498C254.845 185.423 255.72 184.548 256.795 184.548C257.87 184.548 258.746 185.423 258.746 186.498C258.746 187.573 257.87 188.449 256.795 188.449ZM256.795 186.166C256.612 186.166 256.463 186.315 256.463 186.498C256.463 186.866 257.127 186.866 257.127 186.498C257.127 186.315 256.978 186.166 256.795 186.166Z" fill="#20180F"/>
<path d="M267.529 245.114C266.454 245.114 265.578 244.24 265.578 243.163C265.578 242.087 266.454 241.213 267.529 241.213C268.604 241.213 269.479 242.087 269.479 243.163C269.479 244.24 268.604 245.114 267.529 245.114ZM267.529 242.832C267.346 242.832 267.197 242.98 267.197 243.163C267.197 243.531 267.861 243.531 267.861 243.163C267.861 242.98 267.712 242.832 267.529 242.832Z" fill="#20180F"/>
<path d="M281.889 310.551H108.567V301.02H281.889V310.551ZM110.186 308.932H280.27V302.639H110.186V308.932Z" fill="#20180F"/>
<path d="M196.037 13H194.418V70.6914H196.037V13Z" fill="#20180F"/>
<path d="M201.223 67.4054H189.231V73.9758H201.223V67.4054Z" fill="#20180F"/>
<path d="M195.227 63.1659C193.27 63.1659 191.533 64.6147 190.92 66.7611L190.735 67.4054H199.718L199.533 66.7611C198.921 64.6147 197.184 63.1659 195.227 63.1659Z" fill="#20180F"/>
<path d="M198.575 59.0463H191.88V60.665H198.575V59.0463Z" fill="#20180F"/>
<path d="M198.575 55.3459H191.88V56.9646H198.575V55.3459Z" fill="#20180F"/>
<path d="M198.575 51.6454H191.88V53.2642H198.575V51.6454Z" fill="#20180F"/>
<path d="M198.575 47.945H191.88V49.5638H198.575V47.945Z" fill="#20180F"/>
<path d="M198.575 44.243H191.88V45.8617H198.575V44.243Z" fill="#20180F"/>
<path d="M198.575 40.5426H191.88V42.1613H198.575V40.5426Z" fill="#20180F"/>
<path d="M198.575 36.8422H191.88V38.4609H198.575V36.8422Z" fill="#20180F"/>
<path d="M198.575 33.1402H191.88V34.7589H198.575V33.1402Z" fill="#20180F"/>
<path d="M198.575 29.4398H191.88V31.0585H198.575V29.4398Z" fill="#20180F"/>
<path d="M198.575 25.7394H191.88V27.3581H198.575V25.7394Z" fill="#20180F"/>
<path d="M131.409 214.679H259.047L260.168 212.131H130.289L131.409 214.679Z" fill="#20180F"/>
<path d="M257.159 227.73H133.297V229.872H257.159V227.73Z" fill="#20180F"/>
<path d="M264.52 284.396H125.937V286.537H264.52V284.396Z" fill="#20180F"/>
<path d="M273.748 369.273H116.706V378.677H273.748V369.273Z" fill="#20180F"/>
<path d="M292.192 378.675H98.2656V384.485H292.192V378.675Z" fill="#20180F"/>
</g>
<defs>
<linearGradient id="paint0_linear_2272_1071" x1="238.552" y1="463.816" x2="238.552" y2="127.971" gradientUnits="userSpaceOnUse">
<stop stop-color="#1B1B1B"/>
<stop offset="1" stop-color="#0E0E0E"/>
</linearGradient>
<linearGradient id="paint1_linear_2272_1071" x1="323.365" y1="230.582" x2="80.3897" y2="182.078" gradientUnits="userSpaceOnUse">
<stop stop-color="#171717"/>
<stop offset="1" stop-color="#818181"/>
</linearGradient>
<linearGradient id="paint2_linear_2272_1071" x1="201.699" y1="435.77" x2="201.699" y2="362.922" gradientUnits="userSpaceOnUse">
<stop stop-color="#272727"/>
<stop offset="1" stop-color="#393939"/>
</linearGradient>
<linearGradient id="paint3_linear_2272_1071" x1="199.91" y1="417.938" x2="199.91" y2="357.918" gradientUnits="userSpaceOnUse">
<stop stop-color="#DBE38A"/>
<stop offset="1" stop-color="#C7C995"/>
</linearGradient>
<linearGradient id="paint4_linear_2272_1071" x1="114.844" y1="296.02" x2="114.844" y2="275.563" gradientUnits="userSpaceOnUse">
<stop stop-color="white"/>
<stop offset="0.992" stop-color="white"/>
</linearGradient>
<linearGradient id="paint5_linear_2272_1071" x1="311.951" y1="275.83" x2="311.951" y2="254.463" gradientUnits="userSpaceOnUse">
<stop stop-color="white"/>
<stop offset="0.992" stop-color="white"/>
</linearGradient>
</defs>
</svg>
